<svg width="631" height="455" viewBox="0 0 631 455" fill="none" xmlns="http://www.w3.org/2000/svg">
<g clip-path="url(#clip0_130:66)">
<path opacity="0.1" d="M366.622 80.2428C326.169 78.836 287.611 65.7674 250.848 51.4721C214.084 37.1769 177.646 21.3353 138.141 13.7604C112.741 8.88294 83.6933 8.19695 63.2319 21.8236C43.5373 34.9329 37.1757 57.5646 33.7539 78.5628C31.1802 94.3637 29.6871 110.99 36.7226 125.785C41.6201 136.052 50.3113 144.685 56.3242 154.521C77.2389 188.745 62.4534 230.95 39.7843 264.395C29.1527 280.091 16.8188 295.026 8.61566 311.716C0.412478 328.407 -3.38701 347.527 3.79368 364.549C10.9105 381.408 27.8629 394.093 46.2329 403.005C83.5423 421.09 127.504 426.264 170.373 429.229C265.267 435.723 360.673 432.909 455.817 430.095C491.029 429.049 526.398 427.997 561.035 422.538C580.27 419.509 600.133 414.707 614.1 403.115C631.825 388.396 636.223 363.479 624.342 345.021C604.415 314.071 549.323 306.38 535.391 273.162C527.728 254.878 535.6 234.508 546.743 217.55C570.638 181.176 610.701 149.26 612.81 107.676C614.262 79.115 595.004 50.5187 565.223 37.0025C534.014 22.8235 490.733 24.6141 467.709 48.048C444 72.1912 402.333 81.4811 366.622 80.2428Z" fill="white"/>
<path d="M140.738 421.497C140.738 421.497 108.785 397.325 102.749 366.578C100.301 353.664 93.7352 341.892 84.0361 333.028C79.3963 328.859 74.3849 325.123 69.0647 321.867" stroke="#535461" stroke-width="2" stroke-miterlimit="10"/>
<path d="M65.1548 302.496C67.9551 306.287 69.2216 322.349 69.2216 322.349C69.2216 322.349 54.2502 316.449 51.4442 312.664C50.0967 310.845 49.5267 308.564 49.8596 306.324C50.1924 304.084 51.4008 302.069 53.219 300.72C55.0371 299.372 57.3161 298.802 59.5545 299.135C61.7929 299.468 63.8074 300.677 65.1548 302.496Z" fill="#01A632"/>
<path d="M92.0069 315.1C92.2974 319.803 84.6461 333.976 84.6461 333.976C84.6461 333.976 75.2752 320.873 74.9789 316.169C74.8662 313.927 75.641 311.731 77.1353 310.057C78.6296 308.382 80.7231 307.364 82.9622 307.223C85.2012 307.083 87.4055 307.831 89.0974 309.305C90.7894 310.779 91.8326 312.861 92.0011 315.1H92.0069Z" fill="#01A632"/>
<path d="M118.034 351.329C115.919 355.538 102.156 363.909 102.156 363.909C102.156 363.909 100.686 347.864 102.801 343.655C103.842 341.676 105.618 340.185 107.747 339.502C109.876 338.82 112.187 339.001 114.183 340.007C116.18 341.013 117.702 342.763 118.422 344.88C119.142 346.998 119.003 349.313 118.034 351.329Z" fill="#01A632"/>
<path d="M131.565 383.163C130.188 387.669 118.04 398.243 118.04 398.243C118.04 398.243 113.874 382.681 115.251 378.17C115.913 376.005 117.407 374.192 119.405 373.13C121.402 372.067 123.74 371.842 125.903 372.504C128.066 373.167 129.878 374.662 130.94 376.661C132.002 378.66 132.226 380.999 131.565 383.163Z" fill="white"/>
<path d="M70.796 345.37C75.4437 345.998 90.1362 339.359 90.1362 339.359C90.1362 339.359 77.7385 329.081 73.0676 328.453C70.8257 328.152 68.556 328.754 66.7577 330.127C64.9595 331.5 63.78 333.532 63.4788 335.775C63.1776 338.019 63.7793 340.29 65.1515 342.089C66.5237 343.889 68.5541 345.069 70.796 345.37Z" fill="#01A632"/>
<path d="M87.092 382.408C91.7397 381.611 103.748 370.885 103.748 370.885C103.748 370.885 88.8407 364.793 84.1988 365.589C83.0874 365.772 82.0231 366.172 81.0674 366.768C80.1116 367.365 79.2833 368.144 78.6302 369.062C77.9772 369.98 77.5123 371.019 77.2624 372.118C77.0126 373.217 76.9827 374.354 77.1745 375.464C77.3663 376.575 77.7759 377.636 78.3799 378.588C78.9838 379.539 79.7701 380.361 80.6932 381.006C81.6163 381.652 82.6581 382.108 83.7583 382.349C84.8586 382.589 85.9956 382.609 87.1036 382.408H87.092Z" fill="#01A632"/>
<path d="M107.861 416.236C112.573 416.236 126.226 407.696 126.226 407.696C126.226 407.696 112.567 399.168 107.856 399.168C105.594 399.168 103.424 400.067 101.825 401.667C100.226 403.268 99.327 405.438 99.327 407.702C99.327 409.965 100.226 412.136 101.825 413.736C103.424 415.337 105.594 416.236 107.856 416.236H107.861Z" fill="#01A632"/>
<path d="M451.146 212.429C451.146 212.429 470.84 177.519 500.528 167.462C512.994 163.319 523.781 155.243 531.272 144.446C534.785 139.284 537.817 133.81 540.329 128.093" stroke="#535461" stroke-width="2" stroke-miterlimit="10"/>
<path d="M558.967 121.698C555.585 124.977 539.847 128.372 539.847 128.372C539.847 128.372 543.711 112.734 547.092 109.449C548.724 107.92 550.891 107.094 553.126 107.148C555.361 107.201 557.485 108.131 559.042 109.737C560.599 111.343 561.463 113.496 561.449 115.733C561.435 117.97 560.543 120.112 558.967 121.698Z" fill="white"/>
<path d="M550.066 149.969C545.419 150.888 530.389 145.179 530.389 145.179C530.389 145.179 542.124 134.133 546.743 133.232C547.852 132.986 548.999 132.964 550.117 133.167C551.234 133.371 552.3 133.795 553.251 134.417C554.203 135.038 555.02 135.843 555.657 136.785C556.293 137.726 556.734 138.786 556.956 139.901C557.177 141.016 557.174 142.163 556.946 143.277C556.718 144.391 556.27 145.447 555.628 146.385C554.986 147.323 554.163 148.123 553.208 148.739C552.253 149.354 551.185 149.773 550.066 149.969Z" fill="white"/>
<path d="M517.672 180.594C513.222 179.054 503.107 166.52 503.107 166.52C503.107 166.52 518.793 162.927 523.255 164.468C524.327 164.824 525.318 165.389 526.169 166.131C527.021 166.873 527.717 167.777 528.217 168.791C528.717 169.804 529.011 170.907 529.081 172.035C529.152 173.163 528.998 174.294 528.628 175.361C528.259 176.429 527.68 177.413 526.928 178.256C526.175 179.098 525.262 179.783 524.243 180.27C523.224 180.757 522.118 181.036 520.99 181.092C519.862 181.147 518.734 180.978 517.672 180.594Z" fill="white"/>
<path d="M487.903 198.244C483.256 197.477 471.195 186.809 471.195 186.809C471.195 186.809 486.062 180.612 490.704 181.379C492.938 181.747 494.934 182.988 496.254 184.828C497.574 186.669 498.109 188.959 497.742 191.195C497.374 193.431 496.134 195.429 494.295 196.75C492.455 198.07 490.166 198.606 487.932 198.238L487.903 198.244Z" fill="white"/>
<path d="M517.265 132.953C517.259 137.668 525.805 151.347 525.805 151.347C525.805 151.347 534.34 137.685 534.34 132.976C534.369 131.837 534.171 130.704 533.756 129.643C533.341 128.582 532.717 127.615 531.923 126.799C531.128 125.982 530.178 125.334 529.129 124.891C528.08 124.448 526.953 124.22 525.814 124.22C524.675 124.22 523.548 124.448 522.499 124.891C521.45 125.334 520.5 125.982 519.705 126.799C518.911 127.615 518.287 128.582 517.872 129.643C517.457 130.704 517.259 131.837 517.288 132.976L517.265 132.953Z" fill="white"/>
<path d="M482.739 154.033C484.144 158.532 496.368 169.026 496.368 169.026C496.368 169.026 500.435 153.434 499.017 148.934C498.282 146.85 496.767 145.132 494.792 144.142C492.816 143.153 490.534 142.969 488.425 143.63C486.317 144.291 484.547 145.744 483.489 147.685C482.43 149.625 482.165 151.901 482.75 154.033H482.739Z" fill="white"/>
<path d="M452.023 179.129C452.651 183.78 462.922 196.203 462.922 196.203C462.922 196.203 469.551 181.524 468.923 176.856C468.799 175.725 468.45 174.631 467.896 173.637C467.343 172.643 466.596 171.769 465.7 171.068C464.805 170.367 463.778 169.853 462.68 169.554C461.583 169.256 460.437 169.181 459.31 169.332C458.183 169.484 457.098 169.86 456.118 170.437C455.138 171.015 454.283 171.782 453.604 172.695C452.925 173.608 452.436 174.647 452.164 175.752C451.893 176.857 451.845 178.006 452.023 179.129Z" fill="white"/>
<path opacity="0.25" d="M558.967 121.698C555.585 124.977 539.847 128.372 539.847 128.372C539.847 128.372 543.711 112.734 547.092 109.449C548.724 107.92 550.891 107.094 553.126 107.148C555.361 107.201 557.485 108.131 559.042 109.737C560.599 111.343 561.463 113.496 561.449 115.733C561.435 117.97 560.543 120.112 558.967 121.698Z" fill="#01A632"/>
<path opacity="0.25" d="M550.066 149.969C545.419 150.888 530.389 145.179 530.389 145.179C530.389 145.179 542.124 134.133 546.743 133.232C547.852 132.986 548.999 132.964 550.117 133.167C551.234 133.371 552.3 133.795 553.251 134.417C554.203 135.038 555.02 135.843 555.657 136.785C556.293 137.726 556.734 138.786 556.956 139.901C557.177 141.016 557.174 142.163 556.946 143.277C556.718 144.391 556.27 145.447 555.628 146.385C554.986 147.323 554.163 148.123 553.208 148.739C552.253 149.354 551.185 149.773 550.066 149.969Z" fill="#01A632"/>
<path opacity="0.25" d="M517.672 180.594C513.222 179.054 503.107 166.52 503.107 166.52C503.107 166.52 518.793 162.927 523.255 164.468C524.327 164.824 525.318 165.389 526.169 166.131C527.021 166.873 527.717 167.777 528.217 168.791C528.717 169.804 529.011 170.907 529.081 172.035C529.152 173.163 528.998 174.294 528.628 175.361C528.259 176.429 527.68 177.413 526.928 178.256C526.175 179.098 525.262 179.783 524.243 180.27C523.224 180.757 522.118 181.036 520.99 181.092C519.862 181.147 518.734 180.978 517.672 180.594Z" fill="#01A632"/>
<path opacity="0.25" d="M487.903 198.244C483.256 197.477 471.195 186.809 471.195 186.809C471.195 186.809 486.062 180.612 490.704 181.379C492.938 181.747 494.934 182.988 496.254 184.828C497.574 186.669 498.109 188.959 497.742 191.195C497.374 193.431 496.134 195.429 494.295 196.75C492.455 198.07 490.166 198.606 487.932 198.238L487.903 198.244Z" fill="black"/>
<path opacity="0.25" d="M517.265 132.953C517.259 137.668 525.805 151.347 525.805 151.347C525.805 151.347 534.34 137.685 534.34 132.976C534.369 131.837 534.171 130.704 533.756 129.643C533.341 128.582 532.717 127.615 531.923 126.799C531.128 125.982 530.178 125.334 529.129 124.891C528.08 124.448 526.953 124.22 525.814 124.22C524.675 124.22 523.548 124.448 522.499 124.891C521.45 125.334 520.5 125.982 519.705 126.799C518.911 127.615 518.287 128.582 517.872 129.643C517.457 130.704 517.259 131.837 517.288 132.976L517.265 132.953Z" fill="#01A632"/>
<path opacity="0.25" d="M482.739 154.033C484.144 158.532 496.368 169.026 496.368 169.026C496.368 169.026 500.435 153.434 499.017 148.934C498.282 146.85 496.767 145.132 494.792 144.142C492.816 143.153 490.534 142.969 488.425 143.63C486.317 144.291 484.547 145.744 483.489 147.685C482.43 149.625 482.165 151.901 482.75 154.033H482.739Z" fill="black"/>
<path opacity="0.25" d="M452.023 179.129C452.651 183.78 462.922 196.203 462.922 196.203C462.922 196.203 469.551 181.524 468.923 176.856C468.799 175.725 468.45 174.631 467.896 173.637C467.343 172.643 466.596 171.769 465.7 171.068C464.805 170.367 463.778 169.853 462.68 169.554C461.583 169.256 460.437 169.181 459.31 169.332C458.183 169.484 457.098 169.86 456.118 170.437C455.138 171.015 454.283 171.782 453.604 172.695C452.925 173.608 452.436 174.647 452.164 175.752C451.893 176.857 451.845 178.006 452.023 179.129Z" fill="black"/>
<path d="M452.279 211.737C452.279 211.737 456.148 171.833 479.189 150.614C488.907 141.771 495.499 130.014 497.977 117.106C499.105 110.969 499.667 104.742 499.656 98.5028" stroke="#535461" stroke-width="2" stroke-miterlimit="10"/>
<path d="M513.581 78.7184C514.412 80.6756 514.433 82.8823 513.641 84.855L513.634 84.8537C513.239 85.8447 512.164 87.1949 510.696 88.6996C509.245 90.1869 507.467 91.7707 505.734 93.2249C504.003 94.6779 502.325 95.9957 501.079 96.9506C500.508 97.3881 500.029 97.7492 499.677 98.0119C499.606 97.5789 499.511 96.9867 499.404 96.2762C499.169 94.7253 498.875 92.6132 498.636 90.3663C498.397 88.1177 498.214 85.743 498.199 83.6643C498.184 81.5618 498.344 79.8407 498.743 78.8485C499.541 76.8723 501.09 75.2943 503.051 74.4615C505.011 73.6286 507.222 73.6092 509.197 74.4075C511.172 75.2058 512.749 76.7564 513.581 78.7184Z" fill="#01A632" stroke="#01A632"/>
<path d="M517.416 114.525C513.564 117.234 497.489 118.123 497.489 118.123C497.489 118.123 503.752 103.276 507.604 100.567C508.517 99.8825 509.559 99.3887 510.666 99.1146C511.774 98.8404 512.925 98.7915 514.052 98.9706C515.179 99.1497 516.258 99.5533 517.226 100.157C518.195 100.761 519.032 101.554 519.688 102.488C520.345 103.421 520.808 104.477 521.049 105.593C521.291 106.709 521.306 107.862 521.094 108.984C520.882 110.106 520.448 111.174 519.816 112.124C519.184 113.075 518.368 113.889 517.416 114.519V114.525Z" fill="#01A632"/>
<path d="M500.185 155.672C495.491 156.067 481.164 148.696 481.164 148.696C481.164 148.696 494.061 139.046 498.756 138.65C501.01 138.461 503.247 139.175 504.975 140.636C506.703 142.097 507.78 144.185 507.97 146.44C508.159 148.696 507.446 150.935 505.986 152.664C504.526 154.393 502.439 155.471 500.185 155.661V155.672Z" fill="#01A632"/>
<path d="M480.136 183.861C475.575 185.024 460.215 180.216 460.215 180.216C460.215 180.216 471.294 168.526 475.854 167.34C478.044 166.772 480.369 167.097 482.319 168.244C484.268 169.392 485.683 171.267 486.25 173.458C486.818 175.649 486.493 177.976 485.346 179.927C484.2 181.878 482.325 183.293 480.136 183.861Z" fill="white"/>
<path d="M480.543 112.269C482.448 116.577 495.775 125.64 495.775 125.64C495.775 125.64 498.041 109.688 496.136 105.38C495.186 103.365 493.486 101.801 491.4 101.023C489.313 100.244 487.006 100.314 484.969 101.215C482.933 102.117 481.33 103.78 480.503 105.849C479.676 107.918 479.69 110.228 480.543 112.286V112.269Z" fill="#01A632"/>
<path d="M457.513 145.533C460.621 149.074 476.04 153.713 476.04 153.713C476.04 153.713 473.437 137.813 470.329 134.273C469.596 133.413 468.698 132.707 467.69 132.197C466.681 131.687 465.582 131.382 464.455 131.301C463.327 131.22 462.195 131.364 461.124 131.724C460.053 132.085 459.064 132.654 458.215 133.401C457.366 134.147 456.674 135.054 456.178 136.07C455.682 137.087 455.393 138.191 455.328 139.32C455.263 140.449 455.422 141.58 455.797 142.646C456.173 143.713 456.756 144.694 457.513 145.533Z" fill="white"/>
<path d="M439.567 180.949C442.031 184.96 456.444 192.14 456.444 192.14C456.444 192.14 456.566 176.031 454.12 172.014C452.903 170.159 451.011 168.852 448.847 168.369C446.682 167.886 444.415 168.267 442.525 169.429C440.636 170.591 439.274 172.444 438.727 174.595C438.18 176.745 438.492 179.025 439.596 180.949H439.567Z" fill="white"/>
<path d="M422.65 55.466C423.614 51.9256 424.776 48.3678 425.589 44.7809C424.613 48.3678 423.446 51.9372 422.65 55.466Z" fill="url(#paint0_linear_130:66)"/>
<path d="M418.327 89.5676C418.246 89.4281 418.188 89.2886 418.124 89.1607C418.124 89.1025 418.066 89.056 418.043 88.9979C417.916 89.0577 417.786 89.1101 417.653 89.1549C417.398 89.2537 417.136 89.3467 416.869 89.4223C416.602 89.4978 416.491 89.5385 416.288 89.5851C416.12 89.6432 415.947 89.6879 415.771 89.7188L415.818 89.8234C416.033 89.7769 416.242 89.7362 416.457 89.6781L416.515 90.3989C416.759 90.3989 416.985 90.3641 417.206 90.3641C417.311 90.3583 417.415 90.3583 417.52 90.3641C417.973 90.3641 418.368 90.3641 418.682 90.3641C418.56 90.1025 418.432 89.8292 418.327 89.5676ZM536.263 277.417C533.532 273.737 528.083 234.241 528.083 234.241C528.083 234.241 517.364 206.156 520.286 194.948C523.208 183.739 512.304 155.062 512.304 155.062C512.304 155.062 505.1 151.928 504.711 147.278C504.711 147.278 475.296 137.976 473.92 131C472.804 125.28 454.562 121.175 448.009 119.879C446.01 111.81 444 104.281 442.519 100.171C442.118 98.8924 441.74 97.7878 441.391 96.9158C438.888 90.521 431.149 89.9397 425.537 90.4513C425.294 89.3614 424.842 88.3289 424.207 87.4108C424.114 87.0952 423.93 86.8141 423.678 86.6028C423.557 86.5 423.429 86.4067 423.295 86.3237C423.193 86.1353 423.059 85.9661 422.899 85.8238C422.74 85.6801 422.565 85.5552 422.377 85.4517C422.242 85.3786 422.102 85.3145 421.958 85.2599C421.622 85.1316 421.273 85.0362 420.918 84.975C420.505 84.8899 420.085 84.8354 419.664 84.8122C420.689 84.3634 421.603 83.6946 422.342 82.8531C422.844 82.2623 423.218 81.5733 423.44 80.83C423.624 80.2118 423.706 79.5678 423.684 78.9232C423.533 79.1889 423.358 79.4399 423.161 79.6732C423.405 77.0978 422.045 74.4817 421.267 71.918C420.324 68.5804 420.149 65.0723 420.756 61.6573C421.534 56.5066 423.463 51.2978 424.77 46.0541C424.773 46.0251 424.773 45.9958 424.77 45.9669C425.456 43.3627 425.88 40.6967 426.037 38.0083C426.263 32.5843 424.875 27.172 422.644 22.2306C420.663 17.8531 417.741 13.5453 413.267 11.7664C409.944 10.4235 406.22 10.6386 402.641 10.4177C394.612 9.91775 386.955 7.09242 379.322 4.52288C371.688 1.95335 363.833 -0.383656 355.798 0.0639787C347.764 0.511613 339.497 4.38917 335.831 11.5048C334.669 13.7255 334.001 16.1963 332.612 18.2833C330.01 22.219 325.35 24.1897 321.464 26.9046C317.577 29.6195 314.155 33.4738 312.749 38.0722C311.981 40.5497 311.873 43.1848 312.435 45.7169C312.562 46.2887 312.725 46.8518 312.923 47.4028C313.475 48.9388 314.335 50.3456 315.451 51.5361C316.292 52.4161 317.259 53.1664 318.321 53.7627C319.653 54.5019 321.08 55.0573 322.562 55.4137C322.509 55.5881 322.457 55.7741 322.399 55.9543C322.306 56.2508 322.225 56.5357 322.137 56.8554C321.946 57.5705 321.766 58.2971 321.615 59.0296C321.609 59.0818 321.609 59.1345 321.615 59.1866C320.901 62.4933 320.543 65.8668 320.546 69.2497C320.544 70.8496 320.626 72.4484 320.79 74.0399C323.113 97.6308 342.576 116.24 366.622 117.449C367.447 117.49 368.277 117.513 369.12 117.513C369.503 117.513 369.881 117.513 370.282 117.513C370.659 118.013 371.031 118.524 371.386 119.024C371.74 119.524 372.065 120.036 372.373 120.536L371.531 119.664L370.688 118.891C370.46 119.204 370.205 119.498 369.927 119.768C369.378 119.575 368.817 119.416 368.248 119.292C365.837 118.757 362.166 118.559 357.332 120.018C352.888 121.35 347.456 124.088 341.1 129.291L310.129 147.894L293.374 158.091L287.338 172.857C287.338 172.857 282.801 190.402 277.752 210.504C277.554 210.563 277.363 210.621 277.171 210.691C276.762 210.644 276.351 210.621 275.939 210.621C273.01 210.614 270.192 211.743 268.078 213.771C265.963 215.8 264.716 218.569 264.599 221.498C254.56 233.706 253.991 245.914 256.349 251.518C256.563 252.043 256.832 252.544 257.151 253.012C258.696 255.245 261.584 261 264.512 267.133C264.436 267.639 264.39 268.063 264.367 268.383C264.361 268.488 264.361 268.592 264.367 268.697C264.367 268.697 266.11 295.038 260.3 302.589C259.028 304.234 259.219 306.397 260.3 308.792C264.192 317.408 279.582 328.913 279.582 328.913C279.582 328.913 298.039 328.814 308.322 327.692C308.293 328.727 308.27 329.755 308.247 330.761C308.014 340.923 308.014 349.44 308.014 349.44L307.631 360.096C307.631 360.096 304.145 382.553 302.402 388.744C301.304 392.628 302.571 428.584 303.675 455.018H485.527C487.665 439.379 484.65 391.866 484.65 391.866C484.65 391.866 481.786 379.582 481.681 368.874C481.676 368.862 481.673 368.849 481.673 368.836C481.673 368.823 481.676 368.81 481.681 368.798C481.681 367.863 481.681 366.95 481.716 366.055L483.035 366.008L485.405 365.927H485.62C485.62 365.927 485.678 365.706 485.812 365.345C486.125 364.447 486.553 363.594 487.084 362.805C488.095 361.311 489.675 359.846 492.051 359.747C493.364 359.695 495.398 358.631 497.692 357.061C497.708 357.065 497.724 357.065 497.739 357.061C503.915 352.881 512.077 345.167 514.058 343.9C516.783 342.155 529.831 330.529 529.831 330.529C529.831 330.529 531.777 328.064 533.852 325.093L533.927 324.988C536.507 321.268 539.249 316.821 538.575 315.42C537.413 312.908 539.353 306.903 539.353 306.903C545.413 295.805 538.993 281.097 536.263 277.417ZM423.922 98.6075C423.978 98.7811 424.013 98.9606 424.027 99.1423C423.881 98.9505 423.736 98.747 423.591 98.561L423.451 98.375L423.353 98.2354L423.573 97.9331C423.573 97.9331 423.573 97.9332 423.573 97.9738C423.727 98.1623 423.845 98.377 423.922 98.6075ZM421.97 93.4568C421.337 93.5847 420.837 93.701 420.512 93.7882C420.099 93.0557 419.704 92.3232 419.35 91.5791C420.281 92.1198 421.159 92.7485 421.97 93.4568ZM420.878 94.3753C420.876 94.3638 420.876 94.352 420.878 94.3404L420.924 94.3753C421.162 94.5323 421.395 94.6834 421.61 94.8404C421.801 94.9799 421.976 95.1136 422.15 95.2532C422.034 95.4566 421.906 95.6659 421.778 95.8345C421.575 95.5148 421.383 95.2066 421.197 94.8869C421.081 94.759 420.977 94.5846 420.878 94.3753ZM417.392 87.2015C418.514 87.0908 419.645 87.0908 420.767 87.2015C420.924 87.2015 421.064 87.2306 421.203 87.2539C421.518 87.3026 421.827 87.3824 422.127 87.4922C422.813 88.4534 423.236 89.5779 423.353 90.7536L423.039 90.8001L422.731 90.8582C422.15 90.957 421.569 91.0559 421.116 91.1489L420.535 91.271C419.762 91.4395 419.315 91.5674 419.297 91.5732C419.222 91.4163 419.146 91.271 419.065 91.1198C418.937 90.8698 418.804 90.614 418.688 90.3641C418.571 90.1141 418.42 89.8292 418.298 89.5676C418.217 89.4281 418.159 89.2886 418.095 89.1607C418.095 89.1025 418.037 89.056 418.014 88.9979C417.98 88.9362 417.951 88.8721 417.926 88.8061C417.572 88.0852 417.247 87.3643 416.933 86.6551C416.898 86.5853 416.869 86.5098 416.84 86.44L417.282 86.4109V86.5621L417.392 87.2015ZM278.78 447.832C278.734 439.176 278.106 429.81 276.364 421.021C275.62 417.283 274.853 413.544 274.075 409.87C273.877 408.952 273.685 408.045 273.494 407.138L271.704 407.376H271.542C266.661 384.349 261.561 364.061 261.561 364.061C261.561 364.061 251.429 325.349 252.602 322.262C252.753 321.861 252.561 320.78 252.132 319.192C249.68 310.391 239.443 286.137 235.865 277.847C235.865 277.812 235.836 277.772 235.824 277.743C235.243 276.353 234.825 275.417 234.697 275.144L235.539 262.773L235.586 262.029L235.696 260.448L235.65 260.407L235.696 259.674C235.696 259.674 226.854 252.419 211.877 247.181C211.296 246.972 210.68 246.769 210.07 246.571C210.819 241.566 211.813 235.915 213.108 230.41C213.23 229.857 213.364 229.323 213.503 228.782C213.625 228.241 213.765 227.718 213.904 227.189C214.125 226.329 214.363 225.48 214.607 224.643C215.415 224.387 216.211 224.102 216.995 223.8L217.297 223.684C226.959 219.921 234.931 212.784 239.738 203.592C244.545 194.399 245.86 183.776 243.44 173.688C242.061 167.967 239.513 162.593 235.958 157.905C235.69 157.544 235.406 157.184 235.121 156.829C234.836 156.474 234.494 156.079 234.174 155.719C235.853 151.899 237.834 148.266 237.997 144.551C238.026 144.081 238.026 143.609 237.997 143.138V143.08C237.782 140.691 236.724 138.273 234.261 135.732C230.665 132.006 225.547 130.116 220.428 129.209C215.31 128.303 210.093 128.279 204.946 127.669C196.412 126.646 188.098 124.012 179.564 123.204C169.052 122.23 158.468 124.034 148.871 128.436C142.522 131.343 136.09 136.424 135.707 143.394C135.393 149.155 139.402 154.678 138.391 160.369C137.386 165.962 131.692 170.363 132.192 176.019C132.384 178.228 133.517 180.205 134.934 181.966C135.422 182.548 135.939 183.129 136.474 183.71C138.542 185.902 140.819 188.007 141.975 190.768C142.022 190.884 142.068 191 142.109 191.117C143.091 193.843 142.649 197.291 140.221 198.854C140.234 198.865 140.244 198.879 140.25 198.895C140.285 198.942 140.32 198.976 140.349 199.023C140.352 199.014 140.352 199.003 140.349 198.994C141.21 200.015 142.37 200.739 143.666 201.063L144.16 201.215C143.759 201.651 143.381 202.104 142.998 202.581L142.748 202.912C142.108 203.774 141.526 204.677 141.005 205.615C140.709 206.139 140.424 206.662 140.186 207.185C139.39 208.78 138.813 210.475 138.472 212.225C137.851 216.074 138.728 220.085 137.787 223.852C136.625 228.503 132.947 232.072 130.873 236.392C126.946 244.531 129.171 254.082 129.961 263.07C131.036 275.278 129.293 287.538 127.556 299.665C126.634 306.114 125.712 312.569 124.791 319.03C122.467 335.245 120.143 351.461 117.819 367.676C116.971 373.618 115.966 379.885 112.009 384.471H112.05C112.05 384.471 112.05 384.506 112.009 384.518C113.197 385.037 114.46 385.363 115.751 385.483C120.916 386 126.388 383.501 131.036 380.768C134.717 378.64 138.202 376.191 141.453 373.449C140.976 375.193 140.465 377.094 139.919 379.141C139.921 379.16 139.921 379.179 139.919 379.199C133.36 404.196 122.809 450.024 122.809 450.024C122.809 450.024 121.851 452.018 120.608 454.988H284.439C282.522 452.663 280.738 450.437 279.344 448.64L278.78 447.832ZM157.475 216.69C157.516 216.62 157.545 216.556 157.586 216.492C157.586 216.678 157.586 216.859 157.586 217.033C157.586 217.207 157.586 217.364 157.586 217.527C157.586 217.69 157.586 217.672 157.586 217.754C157.586 217.835 157.586 217.754 157.586 217.754C157.586 217.992 157.534 218.231 157.493 218.469C157.493 218.469 157.493 218.498 157.493 218.521L158.074 218.736L158.748 219.015C162.729 220.589 166.761 222.013 170.843 223.288C171.262 223.422 171.686 223.55 172.11 223.672L172.197 224.393C172.302 225.131 172.4 225.881 172.493 226.631C172.493 226.631 172.493 226.666 172.493 226.689C172.755 228.764 173.01 230.834 173.237 232.857C173.237 232.857 162.571 228.788 162.704 234.967C162.698 235.078 162.698 235.188 162.704 235.299C162.692 235.446 162.692 235.594 162.704 235.741C162.803 240.554 164.308 243.409 164.61 244.874C164.592 244.934 164.56 244.99 164.517 245.036C164.259 245.598 164.17 246.222 164.261 246.833C164.251 247.873 164.333 248.911 164.505 249.937C164.191 250.129 163.883 250.321 163.576 250.518C163.343 250.664 163.122 250.826 162.896 250.989C161.471 246.042 159.606 241.233 157.324 236.618C155.727 233.328 153.932 229.898 153.949 226.288C153.949 226.055 153.949 225.817 153.978 225.579C154.043 224.532 154.242 223.499 154.571 222.503C154.704 222.126 154.85 221.753 155.012 221.387C155.392 220.517 155.817 219.667 156.285 218.841C156.587 218.294 156.906 217.754 157.214 217.207C157.313 217.045 157.406 216.876 157.499 216.713L157.475 216.69ZM418.327 89.5676C418.246 89.4281 418.188 89.2886 418.124 89.1607C418.124 89.1025 418.066 89.056 418.043 88.9979C417.916 89.0577 417.786 89.1101 417.653 89.1549C417.398 89.2537 417.136 89.3467 416.869 89.4223C416.602 89.4978 416.491 89.5385 416.288 89.5851L415.771 89.7188L415.818 89.8234C416.033 89.7769 416.242 89.7362 416.457 89.6781L416.515 90.3989C416.759 90.3989 416.985 90.3641 417.206 90.3641H417.52C417.973 90.3641 418.368 90.3641 418.682 90.3641C418.56 90.1025 418.432 89.8292 418.327 89.5676Z" fill="url(#paint1_linear_130:66)"/>
<path d="M291.387 174.955L287.901 176.496C287.901 176.496 265.18 264.825 265.18 271.964C265.18 279.103 313.359 318.826 313.359 318.826L320.877 268.052C320.877 268.052 310.083 151.614 291.387 174.955Z" fill="#E8F5FF"/>
<path d="M397.07 146.859L376.94 136.348C375.812 131.538 373.811 126.977 371.037 122.89C368.092 118.635 364.176 114.455 359.296 112.275C346.962 106.74 411.466 77.6907 411.466 77.6907C412.482 81.1804 413.679 84.615 415.051 87.9805C418.374 96.1891 423.887 106.804 430.992 109.827C443.07 114.972 397.07 146.859 397.07 146.859Z" fill="#FFC1C7"/>
<path opacity="0.1" d="M415.051 87.9805C412.295 97.6802 406.563 106.268 398.666 112.532C390.768 118.796 381.104 122.419 371.037 122.89C368.092 118.635 364.176 114.455 359.296 112.275C346.962 106.74 411.466 77.6907 411.466 77.6907C412.482 81.1804 413.679 84.615 415.051 87.9805Z" fill="black"/>
<path d="M416.863 73.3132C416.866 82.8262 414.049 92.1261 408.768 100.037C403.488 107.948 395.982 114.114 387.2 117.756C378.417 121.397 368.753 122.351 359.429 120.496C350.104 118.641 341.539 114.061 334.817 107.335C328.094 100.609 323.516 92.0385 321.661 82.7083C319.806 73.3782 320.758 63.7072 324.397 54.9185C328.035 46.1298 334.196 38.6182 342.101 33.3337C350.006 28.0492 359.299 25.2292 368.806 25.2303C375.125 25.2011 381.387 26.4248 387.23 28.8307C393.073 31.2367 398.383 34.7772 402.851 39.2479C407.319 43.7186 410.858 49.0308 413.263 54.8777C415.668 60.7246 416.892 66.9904 416.863 73.3132Z" fill="#FFC1C7"/>
<path d="M423.8 140.685L410.693 171.287L399.132 191.599H362.125L351.331 163.828L355.705 135.029H383.969L402.217 134L408.381 131.942L412.355 134.197L423.8 140.685Z" fill="#575A89"/>
<path opacity="0.1" d="M419.286 99.8922C419.286 99.8922 427.46 101.636 420.14 107.642C412.82 113.647 387.565 132.744 387.565 132.744C387.565 132.744 396.437 140.65 394.601 149.911L423.992 133.517L429.22 107.287C429.22 107.287 429.807 99.4039 419.286 99.8922Z" fill="black"/>
<path opacity="0.1" d="M393.346 132.744L374.651 135.831C374.651 135.831 378.508 150.103 376.579 154.155C376.521 154.281 376.473 154.411 376.434 154.544L368.806 175.176L374.523 191.378L394.31 164.375L387.565 154.155C387.565 154.155 394.694 144.702 398.935 141.423C403.176 138.145 393.346 132.744 393.346 132.744Z" fill="black"/>
<path d="M393.346 131.948L374.651 135.029C374.651 135.029 378.508 149.301 376.579 153.353C376.521 153.479 376.473 153.609 376.434 153.742L368.806 174.374L374.523 190.576L394.31 163.555L387.565 153.335C387.565 153.335 394.694 143.882 398.935 140.604C403.176 137.325 393.346 131.948 393.346 131.948Z" fill="#DCE6F2"/>
<path d="M420.07 98.3517C420.07 98.3517 428.244 100.096 420.918 106.101C413.592 112.106 387.565 132.744 387.565 132.744C387.565 132.744 397.204 139.11 395.373 148.365L424.764 131.977L429.993 105.746C429.993 105.746 430.574 97.8634 420.07 98.3517Z" fill="#575A89"/>
<path opacity="0.1" d="M372.321 124.71C372.321 124.71 374.104 128.047 381.977 134.064C381.977 134.064 368.87 141.04 373.884 150.847L353.835 145.615L350.75 135.97L372.321 124.71Z" fill="black"/>
<path d="M371.548 123.942C371.548 123.942 373.332 127.279 381.204 133.296C381.204 133.296 368.097 140.237 373.111 150.074L353.068 144.842L349.983 135.203L371.548 123.942Z" fill="#575A89"/>
<path opacity="0.1" d="M423.8 140.685L410.693 171.287L399.156 191.599H362.125L351.331 163.828L355.7 135.029H363.56C363.432 141.749 365.884 149.644 365.727 152.579C365.46 157.405 372.919 183.437 372.919 183.437C372.919 183.437 388.53 158.172 394.694 155.922C398.569 154.509 406.778 142.755 412.349 134.197L423.8 140.685Z" fill="black"/>
<path d="M475.43 301.723L474.1 303.397C474.1 303.397 483.738 351.806 481.071 362.799C480.618 364.78 480.359 366.801 480.299 368.833V368.92C479.828 380.106 483.203 394.622 483.203 394.622C483.203 394.622 485.899 437.409 484.365 455.006H303.907C302.85 428.985 301.711 395.273 302.745 391.535C304.488 385.367 307.974 362.991 307.974 362.991L308.357 352.387C308.357 352.387 308.357 342.138 308.671 330.72C308.804 325.587 309.002 320.198 309.287 315.419C309.653 309.408 310.164 304.345 310.867 301.857C311.3 299.971 311.549 298.047 311.61 296.113C311.61 295.933 311.61 295.747 311.645 295.561C311.645 294.979 311.703 294.352 311.727 293.706C311.727 293.526 311.727 293.346 311.727 293.125C311.837 289.381 311.796 284.94 311.674 280.335C311.674 280.085 311.674 279.83 311.674 279.574C311.576 276.121 311.43 272.598 311.268 269.249C310.762 258.785 310.106 249.937 310.106 249.937L287.942 176.455L293.914 161.736L310.489 151.574L341.135 133.058C356.083 120.762 365.925 122.239 369.678 123.588C370.042 123.712 370.399 123.858 370.747 124.024C370.863 124.082 370.956 124.128 371.043 124.181C371.162 124.237 371.277 124.303 371.386 124.378C370.358 124.873 369.465 125.609 368.783 126.524C368.014 127.564 367.467 128.751 367.174 130.012C366.977 130.793 366.84 131.588 366.761 132.389C366.686 133.232 366.657 134.104 366.657 134.982C366.698 136.907 366.863 138.828 367.15 140.732C367.15 140.766 367.15 140.813 367.15 140.859C367.342 142.22 367.58 143.551 367.813 144.801C367.81 144.822 367.81 144.844 367.813 144.865C368.08 146.324 368.347 147.673 368.527 148.835C368.562 149.045 368.591 149.237 368.62 149.417C368.748 150.185 368.809 150.963 368.8 151.742C368.866 153.623 369.119 155.493 369.556 157.323C369.707 158.09 369.881 158.91 370.073 159.765C370.334 160.927 370.619 162.195 370.927 163.485C371.095 164.195 371.275 164.927 371.461 165.654C371.531 165.944 371.606 166.235 371.676 166.532L371.792 166.991C373.03 171.915 374.372 176.816 375.197 179.78C375.685 181.524 375.993 182.6 375.993 182.6C375.993 182.6 384.742 168.444 391.725 160.387C391.83 160.271 391.923 160.16 392.021 160.055C392.713 159.259 393.392 158.532 394.043 157.893C395.467 156.474 396.745 155.463 397.773 155.091C397.992 155.01 398.204 154.911 398.406 154.794C401.265 153.172 405.877 147.283 410.194 141.115C410.618 140.534 411.03 139.9 411.449 139.301C412.407 137.918 413.337 136.528 414.214 135.197C414.888 134.18 415.533 133.192 416.143 132.25C419.048 127.727 421.093 124.355 421.093 124.355L425.125 124.175L425.828 124.14H426.298L444.604 123.291C444.604 123.291 445.394 123.425 446.696 123.687C446.765 123.687 446.835 123.687 446.911 123.733C453.406 125.024 471.451 129.111 472.554 134.779C473.902 141.72 503.008 150.981 503.008 150.981C503.392 155.631 510.52 158.695 510.52 158.695C510.52 158.695 521.314 187.239 518.427 198.424C515.575 209.47 525.852 236.793 526.125 237.56L524.155 240.048L475.43 301.723Z" fill="#E8F5FF"/>
<path opacity="0.1" d="M419.28 97.8634C419.28 97.8634 437.098 92.8057 441.148 103.218C445.197 113.629 454.254 155.678 454.254 155.678C454.254 155.678 430.737 160.114 424.573 155.678C420.957 153.045 416.482 151.875 412.041 152.399L398.743 161.462L394.816 160.3C394.816 160.3 416.091 128.651 420.715 117.896C425.34 107.142 426.902 102.334 419.28 97.8634Z" fill="black"/>
<path d="M418.507 95.538C418.507 95.538 436.337 90.4803 440.404 100.892C444.471 111.304 453.51 153.353 453.51 153.353C453.51 153.353 429.999 157.788 423.829 153.353C420.216 150.72 415.742 149.549 411.303 150.074L397.994 159.137L394.066 157.974C394.066 157.974 415.341 126.326 419.966 115.571C424.59 104.816 426.13 100.02 418.507 95.538Z" fill="#E8F5FF"/>
<path opacity="0.1" d="M298.905 263.285C298.905 263.285 312.203 266.563 314.713 274.086C317.223 281.608 304.883 281.8 304.883 281.8C304.883 281.8 297.365 268.493 298.905 263.285Z" fill="black"/>
<path opacity="0.1" d="M348.438 318.826C348.438 318.826 315.869 385.559 323.387 391.924C330.904 398.29 348.438 318.826 348.438 318.826Z" fill="black"/>
<path opacity="0.1" d="M393.346 269.65C393.346 269.65 419.367 334.47 414.162 344.481C408.956 354.492 425.34 344.481 425.34 344.481L393.346 269.65Z" fill="black"/>
<path d="M429.581 333.679C429.581 333.679 341.693 337.923 367.33 365.31C392.968 392.697 445.58 366.473 445.58 366.473L429.581 333.679Z" fill="#FFC1C7"/>
<path opacity="0.1" d="M416.863 73.3132C416.871 79.6209 415.633 85.8679 413.221 91.6953C412.413 91.7883 411.606 91.8464 410.827 91.8813C409.665 89.3292 410.287 86.3818 410.31 83.5739C410.333 80.766 409.299 77.464 406.598 76.7083C401.212 75.1909 397.494 85.2656 392.184 83.446C388.117 82.0624 389.18 75.8886 386.839 72.3249C384.986 69.5054 381.274 68.709 378.386 66.9417C372.245 63.1688 372.431 57.1344 369.579 51.4256C366.593 45.4436 360.283 47.2109 354.805 50.7396C350.645 53.4254 347.055 57.024 342.605 59.1633C338.753 61.0236 334.425 61.698 330.155 61.7968C327.526 61.8987 324.896 61.6207 322.347 60.9713C325.345 49.6897 332.343 39.8846 342.033 33.3846C351.724 26.8846 363.446 24.1334 375.014 25.6441C386.582 27.1547 397.206 32.8241 404.905 41.5949C412.604 50.3658 416.852 61.6393 416.857 73.3132H416.863Z" fill="black"/>
<path d="M354.822 49.1991C350.657 51.8849 347.072 55.4776 342.622 57.6286C338.77 59.483 334.442 60.1574 330.172 60.2562C324.944 60.3725 319.314 59.454 315.741 55.6752C312.459 52.1872 311.674 46.8214 313.063 42.2462C314.451 37.671 317.78 33.8749 321.69 31.1251C325.6 28.3754 330.137 26.4744 332.728 22.5387C334.099 20.4575 334.762 18.0042 335.9 15.7893C339.543 8.7027 347.735 4.86584 355.653 4.38913C363.572 3.91243 371.42 6.27269 378.961 8.8306C386.502 11.3885 394.101 14.2022 402.06 14.7312C405.604 14.9521 409.288 14.7312 412.576 16.0741C416.997 17.8705 419.896 22.1666 421.871 26.5383C424.085 31.4681 425.462 36.8513 425.229 42.2346C424.741 53.7277 417.154 65.0058 420.488 76.0164C421.372 78.9522 423.027 81.9636 422.144 84.8994C420.855 89.1839 415.33 90.1605 410.862 90.364C409.7 87.8119 410.322 84.8587 410.345 82.0566C410.368 79.2545 409.334 75.9467 406.638 75.1909C401.247 73.6853 397.529 83.7425 392.231 81.9287C388.193 80.5393 389.239 74.3712 386.892 70.8076C385.038 67.9823 381.32 67.1917 378.439 65.4244C372.298 61.6515 372.484 55.6171 369.631 49.9083C366.622 43.8972 360.307 45.6645 354.822 49.1991Z" fill="#99607E"/>
<path d="M269.601 270.418L265.168 271.964C265.168 271.964 266.911 298.194 261.102 305.717C255.292 313.239 280.18 331.941 280.18 331.941C280.18 331.941 314.294 331.749 315.259 329.035C316.223 326.32 313.516 280.434 313.516 280.434C313.516 280.434 295.204 273.295 296.744 261.918C296.744 261.918 291.155 288.724 282.87 287.567C274.586 286.41 265.18 279.487 269.601 270.418Z" fill="#E8F5FF"/>
<path opacity="0.1" d="M284.387 295.683C290.845 295.683 296.081 290.891 296.081 284.98C296.081 279.069 290.845 274.278 284.387 274.278C277.928 274.278 272.692 279.069 272.692 284.98C272.692 290.891 277.928 295.683 284.387 295.683Z" fill="black"/>
<path d="M297.174 271.191C297.174 271.191 294.85 200.22 274.621 216.033C254.392 231.846 254.194 250.757 258.046 256.343C261.898 261.93 274.249 289.899 274.249 289.899C276.181 291.019 278.351 291.665 280.58 291.785C282.81 291.904 285.037 291.494 287.077 290.586C289.118 289.679 290.914 288.3 292.32 286.564C293.725 284.828 294.7 282.783 295.163 280.597L297.174 271.191Z" fill="#FFC1C7"/>
<path opacity="0.1" d="M423.364 91.4221C423.27 91.1102 423.088 90.8319 422.841 90.6198C421.842 89.7071 419.693 89.3873 416.451 89.6664L416.584 91.2011C420.907 90.8291 421.761 91.6895 421.871 91.8348V91.9801L422.005 92.172C422.544 92.8968 422.925 93.7262 423.126 94.6071C423.326 95.4881 423.34 96.4011 423.167 97.2878C422.22 102.026 416.404 105.799 416.346 105.839L416.207 105.921L416.12 106.054C413.61 109.781 399.417 120.297 395.705 123.018L395.379 122.646C393.718 124.088 379.112 136.883 378.322 141.784C377.811 144.859 374.348 146.051 373.094 146.382C371.769 145.377 367.47 141.952 365.233 138.116C363.136 134.505 371.577 127.46 372.321 124.71L371.159 123.518C371.037 123.96 360.196 134.098 363.211 139.278C365.628 143.435 370.044 146.993 371.589 148.167C371.095 152.655 368.022 179.007 363.299 185.251C357.431 193.012 352.498 232.125 353.045 245.78C353.527 257.913 350.361 280.83 339.787 290.672C337.956 292.45 335.748 293.792 333.327 294.598C330.905 295.403 328.334 295.651 325.803 295.322H325.676H325.548C325.397 295.322 310.059 296.892 297.174 286.021C286.629 277.144 280.657 262.657 279.414 242.949H279.158L279.053 237.211C281.912 236.765 284.487 235.227 286.237 232.921C287.986 230.614 288.774 227.719 288.435 224.844C288.096 221.968 286.657 219.336 284.419 217.5C282.181 215.664 279.32 214.768 276.435 214.999C273.551 215.231 270.869 216.572 268.952 218.74C267.035 220.909 266.032 223.737 266.155 226.63C266.278 229.523 267.517 232.256 269.612 234.254C271.706 236.252 274.492 237.36 277.386 237.345H277.514L277.618 243.048L277.107 243.083C278.385 263.43 284.66 278.481 295.698 287.777C304.088 294.733 314.805 298.243 325.681 297.596C326.453 297.68 327.229 297.723 328.005 297.723C332.991 297.749 337.788 295.819 341.367 292.346C352.504 281.969 355.891 258.209 355.363 245.664C354.782 231.194 359.958 193.489 365.152 186.623C370.241 179.885 373.326 153.632 373.866 148.545C375.708 148.027 379.873 146.394 380.582 142.15C381.093 139.081 390.848 129.622 396.849 124.384L396.669 124.175C399.899 121.815 409.944 114.373 414.923 109.595C416.468 108.112 418.002 106.63 419.605 105.217C421.534 103.508 423.986 100.793 424.631 97.5843C424.851 96.525 424.852 95.4319 424.634 94.3722C424.416 93.3125 423.984 92.3086 423.364 91.4221Z" fill="black"/>
<path d="M371.391 147.801C371.147 147.632 365.361 143.487 362.462 138.499C359.453 133.319 370.293 123.187 370.41 122.745L371.572 123.937C370.834 126.681 362.392 133.732 364.49 137.337C367.133 141.888 372.699 145.871 372.757 145.911L371.391 147.801Z" fill="#353146"/>
<path d="M394.949 124.146L394.043 122.896C394.229 122.762 412.477 109.554 415.353 105.281L415.446 105.153L415.579 105.066C415.637 105.025 421.453 101.258 422.4 96.5146C422.575 95.6289 422.561 94.7164 422.361 93.8361C422.161 92.9559 421.778 92.1275 421.238 91.4046L421.104 91.2069V91.0674C420.988 90.9163 420.134 90.0617 415.812 90.4338L415.678 88.8932C418.926 88.6142 421.069 88.9339 422.069 89.8466C422.317 90.0608 422.501 90.3409 422.597 90.6547C423.226 91.5386 423.666 92.5418 423.892 93.6027C424.118 94.6635 424.124 95.7594 423.91 96.8227C423.266 100.038 420.82 102.752 418.885 104.456C417.287 105.868 415.748 107.362 414.208 108.833C408.37 114.432 395.588 123.687 394.949 124.146Z" fill="#E8F5FF"/>
<path d="M278.304 235.187L276.764 235.216L276.936 244.579L278.475 244.551L278.304 235.187Z" fill="#E8F5FF"/>
<path d="M276.637 236.607C282.845 236.607 287.878 231.57 287.878 225.358C287.878 219.145 282.845 214.109 276.637 214.109C270.428 214.109 265.395 219.145 265.395 225.358C265.395 231.57 270.428 236.607 276.637 236.607Z" fill="white"/>
<path d="M276.637 234.7C281.793 234.7 285.973 230.517 285.973 225.358C285.973 220.198 281.793 216.016 276.637 216.016C271.48 216.016 267.301 220.198 267.301 225.358C267.301 230.517 271.48 234.7 276.637 234.7Z" fill="#E8F5FF"/>
<path d="M327.273 296.973C326.497 296.975 325.721 296.934 324.949 296.851C314.073 297.492 303.359 293.984 294.966 287.033C283.928 277.731 277.665 262.697 276.375 242.333L278.699 242.188C279.942 261.895 285.914 276.388 296.465 285.259C309.35 296.101 324.682 294.561 324.833 294.561H324.961H325.089C327.62 294.887 330.192 294.639 332.614 293.834C335.036 293.029 337.246 291.687 339.078 289.91C349.646 280.068 352.812 257.151 352.33 245.019C351.749 231.351 356.681 192.239 362.555 184.484C367.696 177.688 370.886 147.057 370.921 146.749L371.008 145.877L371.868 145.725C371.92 145.725 376.94 144.772 377.567 141.016C378.38 136.122 392.962 123.326 394.618 121.879L396.135 123.623C390.11 128.855 380.356 138.319 379.868 141.394C379.159 145.65 374.993 147.278 373.158 147.789C372.577 152.882 369.515 179.129 364.443 185.867C359.249 192.733 354.073 230.439 354.654 244.908C355.154 257.454 351.801 281.219 340.664 291.59C337.078 295.071 332.269 297.005 327.273 296.973Z" fill="#353146"/>
<g opacity="0.1">
<path opacity="0.1" d="M421.813 59.5702C422.766 56.0473 423.916 52.5011 424.718 48.9316C423.759 52.5185 422.603 56.0473 421.813 59.5702Z" fill="black"/>
<path opacity="0.1" d="M412.094 87.2538C410.932 84.7017 411.553 81.7485 411.577 78.9464C411.6 76.1443 410.566 72.8656 407.87 72.0807C402.479 70.5751 398.761 80.6381 393.462 78.8185C389.395 77.4291 390.47 71.2611 388.123 67.6974C386.27 64.8721 382.557 64.0815 379.676 62.3142C373.529 58.5413 373.715 52.5069 370.869 46.7981C367.877 40.8103 361.573 42.5776 356.089 46.1121C351.923 48.7979 348.339 52.3965 343.889 54.5416C340.037 56.3961 335.709 57.0705 331.439 57.1693C326.239 57.2914 320.58 56.367 317.008 52.5883C314.254 49.6816 313.26 45.4203 313.83 41.4265C313.731 41.6997 313.644 41.973 313.557 42.2462C312.162 46.8214 312.976 52.1988 316.235 55.6752C319.808 59.454 325.466 60.3725 330.666 60.2562C334.942 60.1574 339.264 59.483 343.122 57.6286C347.584 55.4776 351.168 51.8849 355.322 49.1991C360.806 45.6645 367.116 43.8972 370.102 49.8851C372.948 55.5939 372.768 61.6282 378.909 65.4011C381.814 67.1451 385.503 67.959 387.362 70.7844C389.686 74.3596 388.658 80.516 392.701 81.9055C397.994 83.7192 401.712 73.662 407.103 75.1677C409.799 75.9234 410.839 79.2371 410.81 82.0334C410.781 84.8296 410.176 87.7887 411.327 90.3407C415.794 90.1373 421.319 89.1781 422.615 84.8761C422.793 84.2587 422.875 83.6176 422.859 82.9751C420.971 86.2365 416.114 87.0736 412.094 87.2538Z" fill="black"/>
</g>
<path opacity="0.1" d="M517.091 230.497L523.836 237.636C523.836 237.636 529.233 276.975 531.929 280.655C534.624 284.335 540.992 298.973 535.013 309.966C535.013 309.966 533.085 315.948 534.241 318.454C535.397 320.96 525.573 333.499 525.573 333.499C525.573 333.499 512.658 345.068 509.957 346.806C507.255 348.544 492.998 362.427 488.182 362.619C483.366 362.811 481.792 368.793 481.792 368.793L454.614 369.758C454.614 369.758 439.602 368.973 436.337 371.095C436.337 371.095 438.08 348.143 421.308 333.098L442.699 325.384C442.699 325.384 450.797 321.896 453.301 318.251C454.876 316.016 457.111 314.331 459.692 313.431C459.692 313.431 465.664 309.187 465.856 306.874C466.048 304.56 473.158 301.723 473.158 301.723L469.132 267.337L471.253 210.249C471.253 210.249 477.998 162.416 492.26 165.119C506.523 167.822 517.091 230.497 517.091 230.497Z" fill="black"/>
<path d="M519.415 230.497L526.16 237.636C526.16 237.636 531.557 276.975 534.252 280.655C536.948 284.335 543.315 298.973 537.337 309.966C537.337 309.966 535.414 315.948 536.57 318.454C537.727 320.96 527.897 333.499 527.897 333.499C527.897 333.499 514.982 345.068 512.28 346.806C509.579 348.544 495.322 362.427 490.506 362.619C485.69 362.811 484.115 368.793 484.115 368.793L456.938 369.758C456.938 369.758 441.914 368.973 438.661 371.095C438.661 371.095 440.404 348.143 423.632 333.098L445.023 325.384C445.023 325.384 453.121 321.896 455.625 318.251C457.2 316.016 459.435 314.331 462.016 313.431C462.016 313.431 467.988 309.187 468.18 306.874C468.371 304.56 475.482 301.723 475.482 301.723L471.456 267.337L473.577 210.249C473.577 210.249 480.322 162.416 494.584 165.119C508.847 167.822 519.415 230.497 519.415 230.497Z" fill="#E8F5FF"/>
<path opacity="0.1" d="M494.34 288.166C494.34 288.166 514.192 282.934 519.397 289.329C524.603 295.724 494.34 288.166 494.34 288.166Z" fill="black"/>
<path opacity="0.1" d="M489.716 296.939C496.461 301.665 517.277 301.857 517.277 301.857L489.716 296.939Z" fill="black"/>
<path opacity="0.1" d="M499.929 320.564C500.51 320.756 514.238 335.418 520.002 330.982C525.765 326.546 499.929 320.564 499.929 320.564Z" fill="black"/>
<path opacity="0.1" d="M315.044 197.517C315.044 197.517 319.076 225.294 317.089 236.607C315.102 247.92 322.352 261.936 322.352 261.936L315.044 197.517Z" fill="black"/>
<path d="M225.785 208.813C221.137 212.458 217.744 221.085 215.287 230.567C211 247.106 209.599 266.284 209.599 266.284C209.599 266.284 172.592 257.797 175.288 253.942C176.984 251.518 174.707 233.252 172.807 220.009C171.674 212.185 170.663 206.109 170.663 206.109C170.663 206.109 238.508 198.779 225.785 208.813Z" fill="#FFCCD0"/>
<path opacity="0.1" d="M225.785 208.039C221.137 211.69 217.744 220.312 215.287 229.793C207.914 232.034 200.072 232.236 192.593 230.378C185.115 228.521 178.278 224.673 172.807 219.242C171.674 211.411 170.663 205.336 170.663 205.336C170.663 205.336 238.508 198.011 225.785 208.039Z" fill="black"/>
<path d="M245.677 187.262C245.681 197.374 242.11 207.161 235.596 214.891C229.082 222.621 220.045 227.796 210.085 229.499C200.125 231.203 189.883 229.326 181.173 224.201C172.463 219.075 165.845 211.031 162.492 201.493C159.139 191.954 159.266 181.536 162.851 172.083C166.436 162.629 173.247 154.749 182.08 149.838C190.913 144.926 201.197 143.3 211.113 145.246C221.028 147.193 229.936 152.587 236.26 160.474C242.353 168.071 245.675 177.521 245.677 187.262Z" fill="#FFCCD0"/>
<path opacity="0.1" d="M279.419 455.006H267.219L266.191 433.444L265.116 411.126C265.116 411.126 267.887 410.713 272.303 410.097L274.086 409.859H274.231C275.196 414.387 276.149 419.038 277.066 423.683C278.594 431.929 279.39 440.294 279.443 448.681C279.443 449.262 279.443 449.844 279.443 450.39C279.477 451.942 279.443 453.494 279.419 455.006Z" fill="black"/>
<path d="M277.078 455.006H124.076C124.738 453.5 125.18 452.587 125.18 452.587C125.18 452.587 137.421 398.999 143.643 376.327C143.645 376.307 143.645 376.288 143.643 376.269C144.42 373.189 145.359 370.152 146.455 367.171C146.525 366.968 146.617 366.773 146.728 366.589C149.807 361.578 153.664 356.177 148.267 348.463C142.87 340.749 144.781 306.804 144.781 306.804C144.781 306.804 151.335 277.87 158.271 262.442C159.324 260.052 160.818 257.882 162.675 256.047C163.279 255.456 163.923 254.908 164.604 254.407C165.121 254.018 165.661 253.659 166.219 253.332L166.329 253.262C169.243 251.609 172.479 250.604 175.816 250.315C178.187 250.067 180.58 250.133 182.933 250.512C194.181 252.163 203.186 254.925 210.343 258.07C229.741 266.598 235.615 278.027 235.731 278.266L235.778 278.365C236.556 280.184 247.943 306.787 252.044 319.198C253.108 322.43 253.689 324.704 253.456 325.326C252.294 328.407 262.322 366.979 262.322 366.979C262.322 366.979 266.969 385.582 271.617 407.388C271.82 408.295 272.012 409.202 272.198 410.12C273.029 414.079 273.854 418.114 274.65 422.143C276.192 430.445 276.987 438.87 277.026 447.315C277.111 449.946 277.128 452.51 277.078 455.006Z" fill="#FF748E"/>
<path opacity="0.1" d="M174.904 237.049C174.904 237.049 164.348 232.979 164.476 239.153C164.604 245.327 167.05 248.28 166.277 249.181C165.504 250.082 166.66 255.483 166.66 255.483C166.66 255.483 180.923 255.483 187.476 258.436C194.03 261.389 218.186 267.307 221.271 269.11C224.356 270.912 235.795 278.992 235.795 278.992L236.823 263.691C236.823 263.691 225.001 253.919 205.602 248.908C186.204 243.897 174.904 237.049 174.904 237.049Z" fill="black"/>
<path d="M174.904 236.275C174.904 236.275 164.348 232.206 164.476 238.38C164.604 244.554 167.05 247.507 166.277 248.408C165.504 249.309 166.66 254.71 166.66 254.71C166.66 254.71 180.923 254.71 187.476 257.669C194.03 260.628 218.186 266.54 221.271 268.336C224.356 270.133 235.795 278.219 235.795 278.219L236.835 262.965C236.835 262.965 225.012 253.192 205.614 248.181C186.216 243.17 174.904 236.275 174.904 236.275Z" fill="#FF748E"/>
<path opacity="0.1" d="M206.77 273.098C206.77 273.098 226.941 294.95 225.913 301.002C224.884 307.054 206.77 273.098 206.77 273.098Z" fill="black"/>
<path opacity="0.1" d="M174.004 352.038C174.004 352.038 159.218 365.671 154.861 366.444C150.504 367.217 158.202 369.787 163.21 367.735C168.217 365.682 178.896 360.282 178.896 360.282L174.004 352.038Z" fill="black"/>
<path d="M283.085 455.006H248.605C243.783 450.82 239.223 446.943 236.318 444.611C231.67 440.879 228.318 435.385 226.18 430.967C225.698 429.962 225.28 429.02 224.925 428.165C224.291 426.693 223.732 425.189 223.252 423.66L248.785 408.487C250.196 409.687 251.522 410.985 252.753 412.37L253.061 412.725C254.479 414.399 255.728 416.3 255.838 417.858C255.966 419.672 261.009 426.689 266.162 433.426C271.391 440.28 276.747 446.832 277.101 447.274C277.101 447.274 277.984 448.477 279.425 450.326C280.442 451.663 281.697 453.268 283.085 455.006Z" fill="#FFCCD0"/>
<path opacity="0.1" d="M236.26 160.474C235.034 163.241 233.936 166.113 233.773 169.194C233.314 178.089 234.058 197.977 224.216 202.441C219.342 204.639 214.125 199.814 208.78 199.697C204.934 199.616 201.408 202.058 199.061 205.11C196.714 208.162 195.255 211.783 193.553 215.237C192.004 218.371 190.219 221.383 188.214 224.247C187.615 225.124 186.955 225.957 186.239 226.741C180.238 224.208 174.894 220.336 170.615 215.423C166.335 210.509 163.233 204.683 161.545 198.388C159.857 192.094 159.626 185.496 160.872 179.099C162.118 172.701 164.806 166.673 168.733 161.473C172.659 156.273 177.72 152.038 183.53 149.092C189.34 146.145 195.745 144.565 202.258 144.471C208.771 144.377 215.219 145.772 221.111 148.549C227.004 151.326 232.185 155.413 236.26 160.497V160.474Z" fill="black"/>
<path d="M233.001 167.625C232.536 176.519 233.285 196.407 223.438 200.866C218.564 203.063 213.347 198.244 208.002 198.128C204.156 198.04 200.635 200.488 198.282 203.534C195.929 206.58 194.483 210.208 192.775 213.667C191.225 216.801 189.44 219.813 187.436 222.678C186.239 224.375 184.914 226.079 183.073 227.032C179.866 228.706 175.979 227.765 172.54 226.689C168.078 225.282 163.682 223.697 159.352 221.934C159.451 221.28 159.502 220.619 159.503 219.957C159.375 220.201 159.236 220.428 159.096 220.672L158.823 221.149C158.33 222.021 157.847 222.893 157.406 223.788C157.237 224.131 157.075 224.486 156.929 224.84C156.345 226.16 155.978 227.566 155.843 229.003C155.547 232.88 157.458 236.56 159.154 240.048C165.679 253.541 169.711 269.319 164.801 283.475C162.675 289.631 158.992 295.102 156.302 301.049C151.6 311.582 150.216 323.299 152.334 334.639C153.676 341.685 156.366 348.661 155.704 355.805C154.542 368.101 143.945 377.251 133.331 383.541C127.597 386.925 120.579 389.936 114.49 387.262C118.371 382.727 119.37 376.455 120.207 370.537C122.496 354.395 124.791 338.245 127.091 322.088C128.009 315.658 128.925 309.228 129.839 302.799C131.547 290.718 133.278 278.504 132.209 266.348C131.431 257.39 129.235 247.879 133.116 239.769C135.167 235.473 138.821 231.915 139.959 227.288C140.895 223.527 140.023 219.527 140.639 215.696C140.976 213.953 141.547 212.263 142.336 210.673C143.34 208.515 144.651 206.514 146.228 204.732C144.671 204.278 143.219 203.656 142.336 202.354C144.834 200.726 145.211 197.058 144.079 194.302C142.946 191.547 140.68 189.448 138.641 187.274C136.602 185.1 134.638 182.565 134.382 179.6C133.888 173.955 139.524 169.584 140.517 164.014C141.522 158.346 137.549 152.835 137.868 147.097C138.24 140.162 144.607 135.122 150.893 132.198C160.379 127.803 170.858 125.998 181.266 126.965C189.736 127.768 197.934 130.39 206.381 131.407C211.476 131.988 216.641 132.046 221.701 132.942C226.761 133.837 231.833 135.726 235.394 139.441C244.782 149.237 233.535 157.3 233.001 167.625Z" fill="#FFE0D0"/>
<path opacity="0.1" d="M225.146 430.973C222.183 429.688 216.792 430.456 207.537 427.636C198.282 424.817 196.499 412.074 196.499 412.074V412.033C196.388 411.742 195.528 409.847 189.707 403.208C183.276 395.877 169.374 358.852 169.374 358.852C169.374 358.852 157.046 345.603 157.435 340.72C157.824 335.836 155.245 322.843 155.5 308.31C155.756 293.776 183.253 284.137 183.253 284.137C236.196 274.749 223.728 335.825 222.317 340.452C220.905 345.08 228.231 357.579 228.231 357.579C227.197 363.02 232.472 371.444 232.472 371.444C232.472 371.444 233.75 378.896 234.011 381.728C234.026 381.858 234.055 381.987 234.099 382.111C234.947 384.78 241.86 387.198 244.672 388.669C247.629 390.215 257.139 403.714 257.139 403.714C259.19 413.626 228.097 432.275 225.146 430.973Z" fill="black"/>
<path d="M226.685 428.648C223.728 427.357 218.331 428.13 209.082 425.305C199.833 422.48 198.044 409.748 198.044 409.748V409.708C197.939 409.411 197.074 407.522 191.253 400.883C184.821 393.552 170.919 356.52 170.919 356.52C170.919 356.52 158.591 343.277 158.974 338.394C159.358 333.511 156.79 320.518 157.046 305.996C157.301 291.474 184.781 281.841 184.781 281.841C237.724 272.452 225.256 333.528 223.845 338.156C222.433 342.783 229.759 355.282 229.759 355.282C228.725 360.724 234 369.147 234 369.147C234 369.147 235.278 376.6 235.545 379.431C235.555 379.562 235.582 379.691 235.626 379.815C236.475 382.483 243.388 384.902 246.206 386.372C249.157 387.913 258.673 401.418 258.673 401.418C260.736 411.312 229.643 429.962 226.685 428.648Z" fill="#FF748E"/>
<path opacity="0.1" d="M185.826 313.728C185.826 313.728 208.955 338.144 214.991 338.144C221.027 338.144 185.826 313.728 185.826 313.728Z" fill="black"/>
<path d="M226.685 428.648C223.728 427.357 218.331 428.13 209.082 425.305C199.833 422.48 198.044 409.748 198.044 409.748V409.708C204.173 405.638 219.697 394.145 225.814 389.942C230.119 386.994 233.634 382.663 235.69 379.792C236.539 382.46 243.452 384.878 246.27 386.349C249.221 387.89 258.737 401.394 258.737 401.394C260.736 411.312 229.643 429.962 226.685 428.648Z" fill="#FF748E"/>
<g opacity="0.1">
<path opacity="0.1" d="M142.37 202.418C142.4 202.464 142.44 202.505 142.475 202.552C142.649 202.331 142.829 202.11 143.015 201.901C142.817 202.093 142.601 202.266 142.37 202.418Z" fill="black"/>
<path opacity="0.1" d="M155.849 229.067C156.093 225.84 157.818 222.997 159.433 220.161C158.376 219.754 157.319 219.341 156.273 218.911C156.372 218.258 156.423 217.6 156.424 216.94C154.791 219.847 153.014 222.707 152.764 225.98C152.468 229.863 154.379 233.537 156.075 237.025C162.605 250.512 166.631 266.29 161.722 280.452C159.59 286.602 155.913 292.079 153.223 298.026C148.522 308.557 147.14 320.272 149.261 331.61C150.591 338.662 153.287 345.632 152.624 352.777C151.463 365.072 140.872 374.222 130.252 380.507C125.912 383.076 120.84 385.431 115.989 385.262C115.54 385.985 115.039 386.675 114.49 387.326C120.584 390.017 127.597 386.989 133.331 383.594C143.957 377.315 154.571 368.188 155.733 355.869C156.395 348.725 153.699 341.754 152.363 334.703C150.242 323.366 151.62 311.652 156.314 301.118C158.986 295.177 162.704 289.695 164.813 283.544C169.722 269.383 165.69 253.605 159.166 240.118C157.475 236.607 155.553 232.95 155.849 229.067Z" fill="black"/>
<path opacity="0.1" d="M235.382 139.511C234.811 138.924 234.197 138.38 233.547 137.883C240.588 147.022 230.421 154.788 229.916 164.625C229.462 173.519 230.206 193.413 220.359 197.866C215.49 200.069 210.267 195.244 204.928 195.128C201.077 195.046 197.556 197.494 195.203 200.54C192.85 203.586 191.404 207.214 189.701 210.667C188.149 213.801 186.362 216.813 184.357 219.678C183.195 221.381 181.835 223.079 179.988 224.038C176.792 225.707 172.906 224.771 169.461 223.689C166.111 222.635 162.791 221.472 159.503 220.201C159.496 220.807 159.446 221.411 159.352 222.009C163.686 223.776 168.084 225.362 172.546 226.765C175.985 227.846 179.872 228.782 183.073 227.113C184.914 226.154 186.251 224.451 187.441 222.747C189.448 219.887 191.233 216.876 192.781 213.742C194.489 210.289 195.929 206.656 198.288 203.61C200.647 200.563 204.162 198.122 208.008 198.203C213.352 198.319 218.575 203.145 223.444 200.941C233.291 196.488 232.542 176.595 233.001 167.7C233.535 157.358 244.782 149.301 235.382 139.511Z" fill="black"/>
</g>
<path opacity="0.1" d="M158.829 221.155C158.335 222.027 157.853 222.899 157.412 223.794C157.243 224.137 157.08 224.492 156.935 224.846C153.891 221.777 146.478 214.481 142.341 212.219C143.347 210.062 144.658 208.061 146.234 206.278C146.234 206.278 156.093 211.493 158.829 221.155Z" fill="black"/>
<path d="M159.102 220.678C156.819 210.336 146.234 204.737 146.234 204.737C144.657 206.52 143.346 208.521 142.341 210.679C146.704 213.068 154.745 221.079 157.412 223.794L159.102 220.678Z" fill="#FF748E"/>
</g>
<defs>
<linearGradient id="paint0_linear_130:66" x1="424.12" y1="55.466" x2="424.12" y2="44.7809" gradientUnits="userSpaceOnUse">
<stop stop-color="#808080" stop-opacity="0.25"/>
<stop offset="0.54" stop-color="#808080" stop-opacity="0.12"/>
<stop offset="1" stop-color="#808080" stop-opacity="0.1"/>
</linearGradient>
<linearGradient id="paint1_linear_130:66" x1="266529" y1="382817" x2="266529" y2="26690.8" gradientUnits="userSpaceOnUse">
<stop stop-color="#808080" stop-opacity="0.25"/>
<stop offset="0.54" stop-color="#808080" stop-opacity="0.12"/>
<stop offset="1" stop-color="#808080" stop-opacity="0.1"/>
</linearGradient>
<clipPath id="clip0_130:66">
<rect width="631" height="455" fill="white"/>
</clipPath>
</defs>
</svg>
