<svg width="627" height="441" viewBox="0 0 627 441" fill="none" xmlns="http://www.w3.org/2000/svg">
<g clip-path="url(#clip0_130:247)">
<path d="M320.222 440.065C339.08 440.065 354.367 424.808 354.367 405.986C354.367 387.165 339.08 371.907 320.222 371.907C301.363 371.907 286.076 387.165 286.076 405.986C286.076 424.808 301.363 440.065 320.222 440.065Z" fill="white"/>
<path d="M524.21 438.151C543.312 432.425 563.621 426.454 578.771 412.843C592.309 400.679 601.448 382.105 595.84 363.864C590.243 345.66 573.479 333.521 556.17 327.484C546.353 324.06 536.083 322.16 525.817 320.668C514.656 319.046 503.447 317.717 492.242 316.438C446.874 311.259 401.336 308.095 355.627 306.947C333.073 306.38 310.523 306.393 287.965 306.72C267.819 307.012 246.603 307.005 227.914 298.459C213.381 291.814 200.191 279.724 196.141 263.837C191.467 245.497 200.089 226.821 212.457 213.539C218.976 206.538 226.596 200.645 234.456 195.227C242.983 189.349 251.807 183.887 260.823 178.789C278.579 168.752 297.143 160.211 316.322 153.253C325.783 149.819 335.384 146.857 345.069 144.124C353.247 141.817 361.45 139.506 369.354 136.362C384.633 130.284 399.165 119.989 403.05 103.112C406.732 87.1157 400.524 69.7507 389.641 57.8676C377.049 44.1196 358.064 38.0929 339.862 37.1178C319.428 36.0231 299.465 41.1273 280.258 47.6052C259.773 54.5144 239.73 62.4587 218.812 68.055C198.069 73.5991 176.925 77.5219 155.572 79.7876C145.118 80.8985 134.349 82.1529 123.834 81.3024C115.021 80.5896 106.253 78.0029 99.758 71.7605C94.1889 66.4081 90.8713 59.052 92.0119 51.2891C92.2191 49.8791 94.3652 50.4785 94.1593 51.8799C92.7709 61.3296 99.2068 70.0371 107.138 74.4976C116.304 79.6526 127.457 79.6597 137.662 79.0701C159.789 77.7363 181.767 74.5654 203.366 69.5905C224.59 64.7523 245.057 57.8359 265.5 50.4476C284.915 43.4306 304.765 36.5819 325.507 35.0621C343.505 33.7433 362.437 36.3602 378.117 45.7475C391.896 53.9976 402.03 67.7561 405.258 83.5443C408.413 98.9722 404.044 114.501 392.342 125.267C380.227 136.414 363.615 141.18 348.134 145.569C328.498 151.136 309.284 157.643 290.686 166.093C271.834 174.633 253.754 184.778 236.646 196.414C220.133 207.677 203.836 221.848 198.613 241.941C196.181 251.3 196.63 261.227 200.7 270.067C204.32 277.927 210.281 284.539 217.225 289.639C233.794 301.807 254.676 304.305 274.69 304.554C297.167 304.833 319.646 304.076 342.131 304.444C387.955 305.195 433.685 307.979 479.321 312.796C490.757 314.004 502.178 315.339 513.584 316.801C523.844 318.117 534.138 319.424 544.225 321.761C562.16 325.916 579.613 333.905 590.761 349.082C595.708 355.661 598.774 363.457 599.629 371.638C600.409 380.176 598.315 388.729 594.448 396.324C585.887 413.134 569.853 423.826 552.825 430.851C543.704 434.613 534.244 437.464 524.802 440.294C523.426 440.706 522.838 438.562 524.21 438.151L524.21 438.151Z" fill="#F2F2F2"/>
<path d="M93.4498 69.2696C103.289 69.2696 111.265 61.309 111.265 51.4892C111.265 41.6693 103.289 33.7087 93.4498 33.7087C83.6108 33.7087 75.6347 41.6693 75.6347 51.4892C75.6347 61.309 83.6108 69.2696 93.4498 69.2696Z" fill="#F2F2F2"/>
<path d="M217.042 102.978C226.881 102.978 234.857 95.0178 234.857 85.1979C234.857 75.378 226.881 67.4175 217.042 67.4175C207.203 67.4175 199.227 75.378 199.227 85.1979C199.227 95.0178 207.203 102.978 217.042 102.978Z" fill="#F2F2F2"/>
<path d="M321.706 35.5608C331.545 35.5608 339.521 27.6003 339.521 17.7804C339.521 7.96056 331.545 0 321.706 0C311.867 0 303.891 7.96056 303.891 17.7804C303.891 27.6003 311.867 35.5608 321.706 35.5608Z" fill="#F2F2F2"/>
<path d="M387.028 111.128C396.867 111.128 404.843 103.167 404.843 93.3472C404.843 83.5273 396.867 75.5668 387.028 75.5668C377.189 75.5668 369.213 83.5273 369.213 93.3472C369.213 103.167 377.189 111.128 387.028 111.128Z" fill="#F2F2F2"/>
<path d="M298.695 198.548C308.534 198.548 316.51 190.587 316.51 180.768C316.51 170.948 308.534 162.987 298.695 162.987C288.856 162.987 280.88 170.948 280.88 180.768C280.88 190.587 288.856 198.548 298.695 198.548Z" fill="#F2F2F2"/>
<path d="M186.608 240.777C196.447 240.777 204.423 232.816 204.423 222.996C204.423 213.176 196.447 205.216 186.608 205.216C176.769 205.216 168.793 213.176 168.793 222.996C168.793 232.816 176.769 240.777 186.608 240.777Z" fill="#F2F2F2"/>
<path d="M305.376 306.712C315.215 306.712 323.191 298.752 323.191 288.932C323.191 279.112 315.215 271.151 305.376 271.151C295.537 271.151 287.561 279.112 287.561 288.932C287.561 298.752 295.537 306.712 305.376 306.712Z" fill="#F2F2F2"/>
<path d="M433.051 343.755C442.89 343.755 450.866 335.794 450.866 325.974C450.866 316.155 442.89 308.194 433.051 308.194C423.212 308.194 415.236 316.155 415.236 325.974C415.236 335.794 423.212 343.755 433.051 343.755Z" fill="#F2F2F2"/>
<path d="M582.252 335.605C592.092 335.605 600.068 327.645 600.068 317.825C600.068 308.005 592.092 300.045 582.252 300.045C572.413 300.045 564.437 308.005 564.437 317.825C564.437 327.645 572.413 335.605 582.252 335.605Z" fill="#F2F2F2"/>
<path d="M316.564 50.3804C263.199 50.7566 219.504 94.0386 218.746 147.296C218.739 147.787 218.736 151.245 218.736 155.767C218.737 162.397 221.376 168.756 226.073 173.444C230.77 178.132 237.141 180.767 243.784 180.768H243.784C247.077 180.767 250.338 180.119 253.38 178.86C256.422 177.601 259.186 175.756 261.513 173.431C263.84 171.105 265.686 168.345 266.944 165.308C268.202 162.27 268.848 159.015 268.845 155.729C268.842 152.652 268.841 150.523 268.841 150.393C268.839 142.162 270.984 134.072 275.065 126.92C279.146 119.767 285.022 113.799 292.116 109.6C299.209 105.402 307.275 103.119 315.521 102.975C323.767 102.832 331.908 104.833 339.143 108.783C346.379 112.732 352.46 118.493 356.788 125.499C361.116 132.506 363.542 140.516 363.827 148.742C364.112 156.968 362.247 165.126 358.416 172.414C354.584 179.703 348.917 185.87 341.972 190.309L341.981 190.32C341.981 190.32 306.33 213.227 295.46 244.65L295.47 244.653C293.558 251.09 292.59 257.77 292.594 264.484C292.594 267.244 292.757 291.392 293.071 310.993C293.181 317.755 295.951 324.204 300.782 328.947C305.613 333.69 312.119 336.348 318.896 336.346H318.896C322.301 336.346 325.673 335.674 328.817 334.368C331.961 333.063 334.815 331.15 337.215 328.739C339.616 326.329 341.515 323.468 342.803 320.322C344.092 317.176 344.744 313.807 344.723 310.409C344.614 292.458 344.555 271.557 344.555 270.04C344.555 250.745 363.206 231.52 378.525 218.983C396.167 204.546 408.862 184.872 413.961 162.679C415.089 158.109 415.711 153.43 415.816 148.726C415.816 135.751 413.243 122.904 408.247 110.926C403.25 98.9472 395.928 88.0741 386.702 78.9325C377.476 69.791 366.529 62.5618 354.492 57.6615C342.454 52.7612 329.564 50.2866 316.564 50.3804Z" fill="white"/>
<path d="M626.116 441H0.883849C0.649883 440.999 0.425737 440.906 0.260537 440.741C0.0953375 440.575 0.00256348 440.352 0.00256348 440.118C0.00256348 439.884 0.0953375 439.66 0.260537 439.495C0.425737 439.33 0.649883 439.237 0.883849 439.236H626.116C626.351 439.236 626.575 439.329 626.741 439.494C626.907 439.66 627 439.884 627 440.118C627 440.352 626.907 440.576 626.741 440.742C626.575 440.907 626.351 441 626.116 441Z" fill="#3F3D56"/>
<path d="M466.496 202.249C478.794 202.249 488.765 192.299 488.765 180.024C488.765 167.749 478.794 157.798 466.496 157.798C454.197 157.798 444.227 167.749 444.227 180.024C444.227 192.299 454.197 202.249 466.496 202.249Z" fill="#2F2E41"/>
<path d="M425.345 431.271H416.245L411.915 396.237H425.347L425.345 431.271Z" fill="#A0616A"/>
<path d="M409.745 428.675H427.295V439.704H398.694C398.694 438.256 398.98 436.822 399.535 435.484C400.091 434.146 400.905 432.93 401.931 431.906C402.957 430.881 404.175 430.069 405.516 429.515C406.857 428.961 408.293 428.675 409.745 428.675Z" fill="#2F2E41"/>
<path d="M495.863 431.271H486.764L482.434 396.237H495.866L495.863 431.271Z" fill="#A0616A"/>
<path d="M480.263 428.675H497.814V439.704H469.212C469.212 438.256 469.498 436.822 470.054 435.484C470.609 434.146 471.423 432.93 472.449 431.906C473.475 430.881 474.693 430.069 476.034 429.515C477.375 428.961 478.812 428.675 480.263 428.675Z" fill="#2F2E41"/>
<path d="M463.112 202.379C473.181 202.379 481.343 194.232 481.343 184.183C481.343 174.134 473.181 165.987 463.112 165.987C453.042 165.987 444.88 174.134 444.88 184.183C444.88 194.232 453.042 202.379 463.112 202.379Z" fill="#A0616A"/>
<path d="M473.978 261.08L482.136 242.374C484.117 237.985 484.685 233.091 483.761 228.367C482.837 223.643 480.467 219.322 476.977 215.999C476.26 215.292 475.499 214.632 474.698 214.021C470.673 210.879 465.712 209.166 460.602 209.154C457.166 209.167 453.773 209.92 450.655 211.362C450.388 211.48 450.128 211.606 449.861 211.732C449.349 211.977 448.844 212.243 448.354 212.517C445.158 214.349 442.439 216.904 440.414 219.977C438.39 223.05 437.118 226.555 436.7 230.209L433.1 260.317C432.194 262.68 399.889 348.026 411.187 413.184C411.308 413.88 411.648 414.519 412.158 415.008C412.668 415.498 413.321 415.811 414.023 415.903L425.477 417.459C426.313 417.573 427.161 417.367 427.851 416.882C428.541 416.396 429.022 415.668 429.195 414.844L448.413 323.415C448.533 322.847 448.84 322.336 449.286 321.962C449.731 321.589 450.289 321.375 450.87 321.356C451.452 321.336 452.023 321.512 452.492 321.854C452.962 322.197 453.303 322.686 453.461 323.245L480.614 419.393C480.808 420.091 481.225 420.707 481.803 421.146C482.381 421.585 483.087 421.823 483.814 421.823C484.03 421.821 484.246 421.801 484.459 421.763L498.451 419.074C499.265 418.922 499.992 418.473 500.491 417.813C500.989 417.154 501.223 416.333 501.146 415.51C499.09 392.626 488.163 277.994 473.978 261.08Z" fill="#2F2E41"/>
<path d="M392.259 199.326C392.132 200.408 392.245 201.504 392.589 202.538C392.933 203.571 393.5 204.517 394.25 205.308C394.999 206.1 395.914 206.717 396.929 207.118C397.943 207.518 399.034 207.692 400.123 207.626L410.314 232.068L418.023 220.663L407.163 199.201C406.932 197.382 406.039 195.711 404.656 194.505C403.272 193.298 401.493 192.641 399.656 192.656C397.819 192.672 396.051 193.359 394.688 194.588C393.324 195.818 392.46 197.503 392.259 199.326L392.259 199.326Z" fill="#A0616A"/>
<path d="M462.101 285.692C463.184 285.562 464.226 285.198 465.153 284.623C466.08 284.048 466.87 283.278 467.466 282.366C468.062 281.454 468.451 280.422 468.605 279.344C468.758 278.266 468.673 277.167 468.356 276.125L489.797 260.538L476.888 255.714L458.506 271.255C456.788 271.903 455.368 273.159 454.515 274.783C453.662 276.407 453.435 278.287 453.878 280.067C454.321 281.846 455.403 283.402 456.919 284.438C458.434 285.475 460.278 285.921 462.101 285.692Z" fill="#A0616A"/>
<path d="M427.147 248.364C426.325 248.363 425.505 248.282 424.699 248.123C422.748 247.752 420.919 246.909 419.373 245.666C417.826 244.424 416.61 242.821 415.83 240.998L401.553 223.623C401.251 223.256 401.031 222.828 400.908 222.369C400.785 221.91 400.762 221.43 400.84 220.962C400.918 220.493 401.096 220.047 401.361 219.652C401.626 219.257 401.973 218.924 402.377 218.674L412.535 212.398C412.91 212.167 413.327 212.011 413.763 211.941C414.198 211.871 414.644 211.888 415.072 211.991C415.501 212.093 415.906 212.28 416.262 212.539C416.618 212.799 416.92 213.126 417.149 213.502L427.212 230.048L446.483 215.834C448.017 215.031 449.79 214.806 451.477 215.2C453.164 215.593 454.652 216.58 455.671 217.978C456.69 219.377 457.17 221.095 457.024 222.818C456.879 224.541 456.117 226.154 454.878 227.363L435.644 244.874C433.383 247.11 430.33 248.364 427.147 248.364Z" fill="#2F2E41"/>
<path d="M479.219 274.495C479.193 274.495 479.167 274.495 479.141 274.494C478.672 274.483 478.212 274.374 477.788 274.173C477.365 273.973 476.988 273.686 476.683 273.331L467.652 262.816C467.345 262.458 467.117 262.039 466.983 261.586C466.85 261.133 466.815 260.658 466.879 260.191C466.944 259.723 467.107 259.275 467.358 258.875C467.609 258.476 467.942 258.134 468.336 257.872L485.246 246.621L469.926 228.238C469.035 226.755 468.708 225.002 469.005 223.299C469.302 221.595 470.204 220.055 471.544 218.96C472.885 217.865 474.576 217.288 476.308 217.334C478.04 217.381 479.697 218.047 480.977 219.213L499.596 237.373C501.062 238.709 502.181 240.38 502.856 242.243C503.532 244.105 503.745 246.104 503.477 248.066C503.209 250.029 502.467 251.898 501.316 253.512C500.165 255.125 498.639 256.436 496.868 257.332L481.65 273.448C481.338 273.779 480.961 274.042 480.543 274.222C480.125 274.402 479.675 274.495 479.219 274.495Z" fill="#2F2E41"/>
<path d="M458.476 235.749C458.331 235.749 458.186 235.74 458.042 235.722C457.414 235.646 456.82 235.391 456.332 234.988C455.843 234.585 455.481 234.05 455.288 233.448L448.502 212.683C448.332 212.158 448.358 211.589 448.575 211.082C448.793 210.575 449.187 210.163 449.685 209.923L449.905 209.82C450.105 209.725 450.303 209.631 450.505 209.541C453.669 208.077 457.114 207.313 460.602 207.302C465.13 207.31 469.558 208.638 473.341 211.122C473.848 211.459 474.202 211.981 474.327 212.576C474.453 213.171 474.339 213.792 474.01 214.304L461.279 234.209C460.981 234.681 460.567 235.071 460.077 235.34C459.586 235.609 459.036 235.75 458.476 235.749Z" fill="#E6E6E6"/>
<path d="M484.053 170.101C488.077 170.101 491.34 166.845 491.34 162.829C491.34 158.812 488.077 155.556 484.053 155.556C480.028 155.556 476.766 158.812 476.766 162.829C476.766 166.845 480.028 170.101 484.053 170.101Z" fill="#2F2E41"/>
<path d="M459.073 154.835C453.954 154.835 449.045 156.864 445.426 160.477C441.806 164.089 439.773 168.988 439.773 174.097V182.246H449.816L454.619 174.097L456.06 182.246H486.538L478.373 174.097C478.372 168.988 476.339 164.089 472.72 160.477C469.1 156.864 464.191 154.835 459.073 154.835Z" fill="#2F2E41"/>
<path d="M487.798 157.847C488.604 155.332 490.272 153.182 492.51 151.773C494.747 150.364 497.41 149.788 500.032 150.146C504.675 150.92 508.347 154.646 510.535 158.807C512.722 162.968 513.733 167.625 515.203 172.089C516.674 176.553 518.76 181.041 522.473 183.931C526.185 186.82 531.883 187.604 535.529 184.631C535.113 187.729 533.731 190.618 531.579 192.889C529.427 195.16 526.615 196.699 523.539 197.287C520.463 197.875 517.28 197.484 514.439 196.167C511.599 194.851 509.245 192.676 507.71 189.952C505.786 186.535 505.289 182.531 504.719 178.653C504.148 174.775 503.407 170.763 501.11 167.584C498.813 164.406 494.512 162.33 490.863 163.777L487.798 157.847Z" fill="#2F2E41"/>
<path d="M250.857 168.942C244.213 168.942 237.843 166.307 233.145 161.619C228.448 156.93 225.809 150.572 225.808 143.942C225.808 139.42 225.811 135.962 225.818 135.471C226.029 119.982 229.938 104.767 237.219 91.0872C225.256 107.432 218.678 127.084 218.395 147.324C218.388 147.816 218.385 151.273 218.386 155.795C218.386 162.426 221.025 168.784 225.722 173.473C230.42 178.161 236.79 180.795 243.434 180.796C248.893 180.794 254.202 179.014 258.554 175.725C262.907 172.437 266.065 167.821 267.549 162.578C262.963 166.683 257.017 168.95 250.857 168.942Z" fill="#3F3D56"/>
<path d="M318.262 103.059C325.942 103.425 333.418 105.646 340.048 109.531C346.679 113.416 352.266 118.849 356.329 125.364C360.392 131.879 362.811 139.28 363.376 146.933C363.942 154.586 362.639 162.262 359.577 169.301C364.005 164.111 367.26 158.029 369.119 151.47C370.978 144.911 371.398 138.029 370.351 131.293C369.304 124.558 366.814 118.126 363.05 112.438C359.287 106.75 354.339 101.938 348.543 98.3317C342.748 94.725 336.242 92.4079 329.468 91.5384C322.694 90.6689 315.812 91.2675 309.29 93.2932C302.769 95.3189 296.762 98.7242 291.679 103.277C286.596 107.83 282.557 113.423 279.836 119.675C284.538 114.154 290.449 109.784 297.111 106.903C303.773 104.022 311.01 102.707 318.262 103.059Z" fill="#3F3D56"/>
<path d="M325.968 324.521C319.191 324.522 312.686 321.865 307.854 317.122C303.023 312.379 300.254 305.93 300.144 299.167C299.83 279.567 299.667 255.418 299.667 252.659C299.662 245.944 300.631 239.265 302.542 232.827L302.533 232.825C303.662 229.594 305.025 226.449 306.611 223.416C301.741 229.894 297.864 237.06 295.11 244.679L295.119 244.681C293.208 251.119 292.239 257.798 292.244 264.512C292.244 267.272 292.407 291.421 292.721 311.021C292.831 317.784 295.6 324.232 300.431 328.976C305.263 333.719 311.768 336.376 318.545 336.375C324.133 336.374 329.57 334.565 334.04 331.219C338.51 327.873 341.773 323.171 343.339 317.817C338.591 322.139 332.394 324.53 325.968 324.521Z" fill="#3F3D56"/>
<path d="M93.931 431.609L103.031 431.608L107.361 396.574L93.9288 396.575L93.931 431.609Z" fill="#FFB8B8"/>
<path d="M120.582 440.041L91.981 440.043L91.9804 429.014L109.531 429.013C112.462 429.013 115.273 430.174 117.345 432.243C119.418 434.311 120.582 437.116 120.582 440.041L120.582 440.041Z" fill="#2F2E41"/>
<path d="M61.2699 431.609L70.3698 431.608L74.6996 396.574L61.2677 396.575L61.2699 431.609Z" fill="#FFB8B8"/>
<path d="M87.9211 440.041L59.3199 440.043L59.3194 429.014L76.8702 429.013C79.8009 429.013 82.6117 430.174 84.6841 432.243C86.7566 434.311 87.921 437.116 87.9211 440.041L87.9211 440.041Z" fill="#2F2E41"/>
<path d="M69.2224 420.834L60.3334 420.367C59.875 420.343 59.426 420.229 59.0123 420.03C58.5987 419.832 58.2286 419.553 57.9235 419.211C57.6185 418.869 57.3845 418.469 57.2351 418.036C57.0858 417.603 57.0241 417.145 57.0535 416.688L67.6778 299.288L116.603 312.464L121.317 311.181L106.576 415.111C106.451 415.893 106.062 416.608 105.474 417.14C104.885 417.671 104.133 417.986 103.341 418.033L93.759 418.479C93.2799 418.506 92.8005 418.433 92.351 418.265C91.9016 418.097 91.4919 417.838 91.1478 417.504C90.8038 417.17 90.5329 416.769 90.3523 416.325C90.1716 415.881 90.0852 415.405 90.0984 414.926L91.8346 352.549C91.8427 352.261 91.7424 351.98 91.5532 351.761C91.364 351.543 91.0998 351.404 90.8127 351.37C90.5255 351.337 90.2362 351.412 90.0017 351.581C89.7673 351.749 89.6047 352 89.546 352.282L72.8021 418.079C72.644 418.86 72.2196 419.562 71.6011 420.065C70.9826 420.568 70.2084 420.842 69.4104 420.839C69.3481 420.839 69.2854 420.838 69.2224 420.834Z" fill="#2F2E41"/>
<path d="M95.5648 203.23C105.634 203.23 113.796 195.083 113.796 185.034C113.796 174.985 105.634 166.838 95.5648 166.838C85.4958 166.838 77.3333 174.985 77.3333 185.034C77.3333 195.083 85.4958 203.23 95.5648 203.23Z" fill="#FFB8B8"/>
<path d="M65.2105 238.493L67.2151 281.661L67.9398 297.365C67.9687 298.049 68.2012 298.709 68.6077 299.26C69.0143 299.811 69.5763 300.228 70.2218 300.459L117.236 317.456C117.616 317.597 118.018 317.668 118.423 317.664C118.886 317.666 119.345 317.575 119.772 317.397C120.199 317.218 120.586 316.956 120.909 316.624C121.232 316.293 121.485 315.901 121.653 315.47C121.821 315.039 121.9 314.579 121.885 314.117L119.958 236.5C119.831 230.132 117.482 224.008 113.316 219.183C109.151 214.358 103.428 211.134 97.1367 210.069C96.682 209.999 96.2193 209.93 95.7567 209.869C91.8552 209.385 87.8951 209.761 84.1548 210.969C80.4146 212.178 76.985 214.19 74.1076 216.863C71.128 219.598 68.7868 222.953 67.2494 226.691C65.712 230.428 65.0159 234.457 65.2105 238.493L65.2105 238.493Z" fill="#CCCCCC"/>
<path d="M139.695 308.843C138.583 308.499 137.567 307.899 136.728 307.094C135.889 306.288 135.251 305.297 134.863 304.201C134.476 303.106 134.351 301.935 134.498 300.782C134.645 299.629 135.06 298.527 135.709 297.562L119.766 276.404L133.524 275.554L146.555 295.777C147.95 296.853 148.92 298.385 149.297 300.105C149.673 301.824 149.43 303.621 148.612 305.18C147.794 306.738 146.451 307.96 144.821 308.63C143.19 309.3 141.375 309.375 139.695 308.843H139.695Z" fill="#FFB8B8"/>
<path d="M128.485 293.733C128.063 293.562 127.678 293.309 127.355 292.989C127.031 292.669 126.774 292.288 126.599 291.867L102.579 234.752C102.108 233.634 101.862 232.434 101.856 231.221C101.849 230.008 102.082 228.805 102.542 227.682C103.001 226.559 103.678 225.537 104.533 224.675C105.389 223.813 106.406 223.128 107.527 222.658C108.647 222.189 109.85 221.944 111.066 221.939C112.281 221.933 113.486 222.167 114.611 222.626C115.736 223.086 116.759 223.762 117.622 224.616C118.485 225.47 119.171 226.486 119.641 227.605L143.66 284.721C144.015 285.568 144.019 286.521 143.671 287.371C143.323 288.22 142.651 288.898 141.804 289.254L131.14 293.721C130.721 293.898 130.27 293.99 129.814 293.993C129.358 293.995 128.906 293.907 128.485 293.733L128.485 293.733Z" fill="#CCCCCC"/>
<path d="M89.7032 291.719L112.773 247.631C113.218 246.784 113.982 246.147 114.897 245.86C115.812 245.573 116.803 245.661 117.654 246.103L151.14 263.557C151.989 264.001 152.628 264.764 152.915 265.677C153.202 266.59 153.115 267.58 152.672 268.428L129.602 312.516C129.157 313.363 128.393 314.001 127.478 314.287C126.563 314.574 125.572 314.486 124.721 314.044L91.2349 296.59C90.3854 296.146 89.747 295.383 89.4599 294.47C89.1727 293.557 89.2602 292.568 89.7032 291.719Z" fill="#3F3D56"/>
<path d="M105.175 271.576C104.765 270.489 104.106 269.512 103.25 268.724C102.394 267.936 101.366 267.358 100.247 267.037C99.1282 266.716 97.9495 266.661 96.8052 266.875C95.6609 267.089 94.5827 267.568 93.6566 268.272L71.5521 253.637L71.5145 267.394L92.511 279.183C93.6701 280.509 95.26 281.386 97.0019 281.659C98.7438 281.932 100.527 281.585 102.037 280.677C103.548 279.77 104.691 278.36 105.264 276.696C105.838 275.032 105.806 273.219 105.175 271.576Z" fill="#FFB8B8"/>
<path d="M77.2273 274.67L59.1622 260.388C57.2079 259.733 55.4421 258.615 54.0162 257.129C52.5903 255.643 51.5471 253.834 50.976 251.857C50.4049 249.88 50.323 247.794 50.7374 245.778C51.1517 243.763 52.0499 241.878 53.3549 240.285L69.7575 218.83C70.8974 217.44 72.5004 216.506 74.2737 216.198C76.0469 215.891 77.8718 216.23 79.4149 217.155C80.958 218.079 82.1161 219.527 82.6776 221.234C83.2391 222.941 83.1664 224.792 82.4728 226.45L69.4946 247.638L88.5672 256.667C89.0107 256.876 89.4045 257.178 89.7226 257.551C90.0408 257.924 90.2759 258.36 90.4126 258.831C90.5493 259.301 90.5844 259.795 90.5155 260.281C90.4467 260.766 90.2755 261.231 90.0133 261.645L82.3144 273.805C82.0541 274.215 81.7104 274.567 81.3054 274.836C80.9005 275.106 80.4434 275.287 79.9637 275.369C79.9447 275.372 79.9255 275.375 79.9063 275.378C79.435 275.449 78.9541 275.423 78.4933 275.301C78.0325 275.179 77.6016 274.965 77.2273 274.67Z" fill="#CCCCCC"/>
<path d="M81.7886 197.218C81.7103 196.99 81.6855 196.747 81.716 196.507C81.7465 196.268 81.8316 196.039 81.9646 195.837C82.0976 195.635 82.275 195.467 82.4834 195.344C82.6917 195.222 82.9254 195.148 83.1665 195.13C83.6603 195.157 84.1436 195.283 84.587 195.501C85.0305 195.72 85.4251 196.026 85.7468 196.4C86.4066 197.16 87.1748 197.818 88.0266 198.354C88.9085 198.798 90.1046 198.735 90.6074 197.889C91.0795 197.094 90.756 196.031 90.4702 195.108C89.7429 192.76 89.3359 190.326 89.2603 187.87C89.178 185.128 89.5655 182.267 91.0862 180.129C93.0487 177.37 96.5579 176.322 99.879 176.398C103.2 176.474 106.467 177.497 109.757 178.144C110.892 178.367 112.227 178.482 112.987 177.603C113.795 176.669 113.498 175.157 113.154 173.896C112.263 170.623 111.317 167.24 109.246 164.597C107.007 161.85 103.808 160.053 100.293 159.566C96.9195 159.149 93.4946 159.537 90.3003 160.698C85.096 162.336 80.5165 165.52 77.1744 169.825C73.7292 174.403 72.2405 180.157 73.0338 185.827C73.8088 190.766 76.4311 195.228 80.372 198.314L81.7886 197.218Z" fill="#2F2E41"/>
<path d="M312.699 431.753C307.848 429.645 303.555 426.44 300.158 422.392C296.761 418.344 294.353 413.563 293.124 408.427C291.895 403.291 291.879 397.94 293.077 392.797C294.275 387.654 296.655 382.859 300.027 378.791C296.117 381.64 292.858 385.287 290.468 389.49C288.078 393.693 286.611 398.354 286.163 403.166C285.716 407.978 286.3 412.83 287.875 417.399C289.451 421.969 291.982 426.152 295.301 429.67C298.619 433.189 302.65 435.963 307.125 437.808C311.601 439.653 316.418 440.527 321.257 440.372C326.096 440.217 330.847 439.036 335.195 436.908C339.542 434.781 343.386 431.754 346.472 428.03C341.659 431.541 336.008 433.733 330.083 434.386C324.157 435.039 318.163 434.131 312.699 431.753Z" fill="#3F3D56"/>
</g>
<defs>
<clipPath id="clip0_130:247">
<rect width="627" height="441" fill="white"/>
</clipPath>
</defs>
</svg>
