<svg width="717" height="509" viewBox="0 0 717 509" fill="none" xmlns="http://www.w3.org/2000/svg">
<g clip-path="url(#clip0_108:507)">
<path opacity="0.1" d="M238.373 508.714C273.29 508.714 301.596 504.158 301.596 498.537C301.596 492.916 273.29 488.36 238.373 488.36C203.455 488.36 175.149 492.916 175.149 498.537C175.149 504.158 203.455 508.714 238.373 508.714Z" fill="black"/>
<path opacity="0.1" d="M582.047 509C625.618 509 660.94 504.444 660.94 498.823C660.94 493.203 625.618 488.646 582.047 488.646C538.475 488.646 503.154 493.203 503.154 498.823C503.154 504.444 538.475 509 582.047 509Z" fill="black"/>
<path opacity="0.5" d="M8.98003 219.925H74.8313V309.878H13.801C13.6387 310.801 13.483 311.731 13.3143 312.661H74.8313V385.206C74.721 385.174 74.6237 385.135 74.5199 385.096C72.781 384.406 71.0551 383.678 69.3291 382.898L68.2261 382.397C66.4958 381.578 64.7656 380.711 63.0353 379.796C62.4319 379.477 61.8285 379.146 61.2315 378.807C51.6259 373.415 42.8997 366.582 35.3556 358.545C35.135 358.33 34.9274 358.103 34.7067 357.894C33.6556 356.75 32.624 355.592 31.6247 354.409L30.5217 353.108C29.3408 351.658 28.1988 350.169 27.0893 348.661C26.9271 348.439 26.7714 348.218 26.6027 348.01C22.0903 341.74 18.3435 334.95 15.4425 327.787C15.3517 327.572 15.2738 327.338 15.1895 327.136C14.2984 324.839 13.509 322.519 12.8212 320.178C12.5227 319.196 12.2372 318.227 11.9907 317.206C11.8998 316.907 11.822 316.615 11.7506 316.322C8.06516 301.905 7.63043 286.929 7.63043 272.058C7.63043 270.321 7.63043 268.579 7.63043 266.855C7.63043 260.84 7.70181 254.786 7.80562 248.739C7.80562 247.171 7.8705 245.611 7.90295 244.037C7.99378 240.044 8.12355 236.052 8.29225 232.059C8.33119 230.947 8.38309 229.841 8.44149 228.736C8.44149 228.099 8.47393 227.461 8.53882 226.824C8.69454 224.509 8.82431 222.214 8.98003 219.925Z" fill="#00C2FF"/>
<path opacity="0.5" d="M74.8314 119.769H38.7101C44.5818 110.558 50.9974 101.707 57.9224 93.2631C63.2884 86.6563 68.9528 80.2185 74.8314 74.0148V119.769Z" fill="#00C2FF"/>
<path opacity="0.5" d="M74.8314 122.552V217.141H9.18768C9.18768 216.868 9.2331 216.589 9.25257 216.316C9.31096 215.568 9.36936 214.82 9.43424 214.079C9.50562 213.207 9.58348 212.329 9.66783 211.478C9.75218 210.626 9.84302 209.585 9.94034 208.642C10.0377 207.699 10.1285 206.743 10.2388 205.801C10.3491 204.858 10.4464 203.915 10.5632 202.978C10.68 202.042 10.7838 201.093 10.9071 200.156C11.0045 199.376 11.1083 198.602 11.2121 197.822C11.3613 196.723 11.517 195.617 11.6857 194.525C11.6857 194.362 11.7312 194.193 11.7571 194.037C12.9414 186.04 14.555 178.112 16.591 170.289C18.7222 162.082 21.4437 154.041 24.734 146.228C28.2311 138.056 32.3256 130.153 36.9842 122.584L74.8314 122.552Z" fill="#00C2FF"/>
<path opacity="0.5" d="M90.5529 218.918V308.878H231.203V218.918H90.5529ZM90.5529 311.654V388.908C91.3574 389.077 92.1555 389.239 92.9471 389.376C94.0242 389.584 95.0948 389.773 96.1913 389.935C96.399 389.968 96.6131 390 96.8402 390.02C97.2684 390.091 97.7096 390.15 98.1379 390.208C99.2214 390.358 100.299 390.481 101.382 390.579C101.895 390.631 102.414 390.676 102.933 390.716L104.185 390.813C104.866 390.865 105.541 390.904 106.209 390.924C106.625 390.924 107.04 390.963 107.468 390.976C107.793 390.976 108.117 390.976 108.454 390.976C108.792 390.976 109.272 390.976 109.681 390.976C110.239 390.976 110.797 390.976 111.348 390.976H112.095C112.653 390.976 113.211 390.976 113.762 390.924H113.801C114.184 390.924 114.573 390.924 114.962 390.872C115.07 390.878 115.179 390.878 115.287 390.872C115.611 390.872 115.936 390.872 116.247 390.826H116.474L118.648 390.657C119.362 390.592 120.082 390.507 120.809 390.429L122.288 390.254C128.306 389.409 134.258 388.14 140.099 386.456C153.218 382.789 166.052 377.658 179.166 373.899C196.12 369.055 214.852 366.675 231.235 372.599V311.654H90.5529ZM231.203 118.769V-0.993501C215.804 -1.1607 200.447 0.644346 185.505 4.37781C149.89 13.3452 117.934 32.795 90.5529 57.6357V118.762H97.6123V121.539H90.5529V216.141H231.203V121.545H126.596V118.769H231.203ZM411.861 78.3146C403.05 78.0025 394.29 75.2063 386.368 70.8884C371.217 62.6299 359.116 49.8779 345.594 39.1158C317.499 16.7006 282.656 3.17479 246.912 -0.180651V118.769H447.697L448.196 118.242L411.861 78.3146ZM430.152 75.0632L449.546 96.3924V69.4708C443.051 70.2772 437.361 72.1955 430.178 75.0372L430.152 75.0632ZM449.546 408.091V311.654H408.221C408.111 311.245 408 310.829 407.871 310.412C407.994 310.829 408.098 311.245 408.215 311.654H246.938V381.397C248.469 382.535 249.981 383.732 251.479 384.948C253.095 386.248 254.691 387.62 256.294 388.966L257.91 390.306C258.682 390.956 259.46 391.606 260.245 392.218C261.803 393.484 263.375 394.732 264.962 395.963C265.748 396.614 266.552 397.199 267.35 397.81C280.02 407.519 293.386 416.28 307.339 424.023C310.466 425.757 313.622 427.45 316.805 429.102C318.927 430.188 321.062 431.267 323.203 432.314C326.421 433.888 329.665 435.405 332.936 436.866C363.085 450.43 394.966 459.737 427.667 464.522C434.93 465.597 442.221 466.443 449.54 467.058V408.085H450.188L449.546 408.091ZM246.938 121.545V216.141H449.572V121.545H246.938ZM246.938 218.918V308.878H449.572V218.918H246.938ZM465.3 69.3538V99.3837L490.053 72.163C481.852 70.8364 473.601 69.8892 465.3 69.3213V69.3538ZM465.3 218.951V308.878H662.387V218.918L465.3 218.951ZM661.667 415.231L662.361 311.654H465.3V468.092C477.995 468.627 490.709 468.475 503.387 467.637H503.608C509.664 467.256 515.691 466.701 521.691 465.972H521.827C553.835 462.239 585.133 453.869 614.742 441.125L661.667 415.231ZM700.39 233.732C699.65 231.982 698.878 230.246 698.093 228.529C696.626 225.278 695.076 222.117 693.479 218.957H678.102V308.878H716.981C716.961 283.413 710.531 257.402 700.409 233.699L700.39 233.732ZM678.102 311.687V400.775C689.054 390.254 698.307 378.217 704.97 364.457C712.984 347.888 716.65 329.947 716.948 311.674L678.102 311.687ZM678.102 192.738V216.148H692.039C687.823 208.089 683.177 200.264 678.121 192.705L678.102 192.738ZM544.44 87.0024C543.414 86.6122 542.389 86.2155 541.358 85.8319C530.477 81.8049 519.358 78.456 508.065 75.8046L470.186 117.468L469.459 118.242L469.946 118.775H604.763C585.987 105.822 565.744 95.1455 544.459 86.9699L544.44 87.0024ZM608.714 121.578H468.064L465.3 124.114V216.141H489.528H489.567H662.413V171.565C646.777 152.613 628.73 135.796 608.734 121.545L608.714 121.578Z" fill="#00C2FF"/>
<path opacity="0.1" d="M74.8314 170.263V217.141H9.18768C9.18768 216.868 9.2331 216.589 9.25257 216.316C9.31096 215.568 9.36936 214.82 9.43424 214.079C9.50562 213.207 9.58348 212.329 9.66783 211.477C9.75218 210.626 9.84302 209.585 9.94034 208.642C10.0377 207.699 10.1285 206.743 10.2388 205.801C10.3491 204.858 10.4464 203.915 10.5632 202.978C10.68 202.042 10.7838 201.093 10.9071 200.156C11.0045 199.376 11.1083 198.602 11.2121 197.822C11.3613 196.723 11.517 195.617 11.6857 194.525C11.6857 194.362 11.7312 194.193 11.7571 194.037C12.9414 186.04 14.555 178.112 16.591 170.289L74.8314 170.263Z" fill="black"/>
<path opacity="0.1" d="M8.98003 219.925H74.8313V309.878H13.801C13.6387 310.801 13.483 311.731 13.3143 312.661H74.8313V385.206C74.721 385.174 74.6237 385.135 74.5199 385.096C72.781 384.406 71.0551 383.678 69.3291 382.898L68.2261 382.397C66.4958 381.578 64.7656 380.711 63.0353 379.796C62.4319 379.477 61.8285 379.146 61.2315 378.807C51.6259 373.415 42.8997 366.582 35.3556 358.545C35.135 358.33 34.9274 358.103 34.7067 357.894C33.6556 356.75 32.624 355.592 31.6247 354.409L30.5217 353.108C29.3408 351.658 28.1988 350.169 27.0893 348.661C26.9271 348.439 26.7714 348.218 26.6027 348.01C22.0903 341.74 18.3435 334.95 15.4425 327.787C15.3517 327.572 15.2738 327.338 15.1895 327.136C14.2984 324.839 13.509 322.519 12.8212 320.178C12.5227 319.196 12.2372 318.227 11.9907 317.206C11.8998 316.907 11.822 316.615 11.7506 316.322C8.06516 301.905 7.63043 286.929 7.63043 272.058C7.63043 270.321 7.63043 268.579 7.63043 266.855C7.63043 260.84 7.70181 254.786 7.80562 248.739C7.80562 247.171 7.8705 245.611 7.90295 244.037C7.99378 240.044 8.12355 236.052 8.29225 232.059C8.33119 230.947 8.38309 229.841 8.44149 228.736C8.44149 228.099 8.47393 227.461 8.53882 226.824C8.69454 224.509 8.82431 222.214 8.98003 219.925Z" fill="#00C2FF"/>
<path opacity="0.1" d="M140.066 136.091V217.141H90.5529V136.091H97.6123V108.649H126.59V136.091H140.066Z" fill="black"/>
<path opacity="0.1" d="M140.066 219.918H90.5593V309.871H140.066V219.918Z" fill="black"/>
<path opacity="0.1" d="M90.5529 312.661H140.066V387.443C134.226 389.125 128.274 390.392 122.255 391.234L120.776 391.416C120.049 391.501 119.329 391.573 118.615 391.644C117.902 391.716 117.162 391.768 116.442 391.813H116.215C115.903 391.813 115.566 391.852 115.261 391.859H114.93C114.541 391.859 114.151 391.898 113.762 391.911C113.211 391.943 112.659 391.95 112.095 391.956C111.854 391.956 111.627 391.956 111.387 391.956C110.829 391.956 110.278 391.956 109.72 391.956H108.493C108.163 391.956 107.845 391.956 107.501 391.956L106.248 391.911C105.6 391.911 104.899 391.839 104.224 391.794L102.978 391.703L101.427 391.56C100.337 391.462 99.2539 391.338 98.1833 391.189L96.8856 391.007L96.2367 390.916C95.1532 390.747 94.0826 390.565 92.9925 390.356C92.1944 390.22 91.4028 390.051 90.5983 389.888L90.5529 312.661Z" fill="black"/>
<path opacity="0.1" d="M449.572 126.518H408.747V217.135H449.572V126.518Z" fill="black"/>
<path opacity="0.1" d="M449.578 219.918V309.878H246.938V271.076H354.873V293.965H408.747V219.918H449.578Z" fill="black"/>
<path opacity="0.1" d="M450.221 409.111H449.572V468.123C442.262 467.504 434.973 466.66 427.706 465.594C394.989 460.793 363.094 451.466 332.935 437.879C324.228 433.951 315.698 429.664 307.345 425.016C293.393 417.27 280.025 408.508 267.35 398.804C264.167 396.359 261.024 393.857 257.923 391.299C255.775 389.524 253.64 387.703 251.479 385.935C249.981 384.719 248.469 383.522 246.938 382.378V312.661H408.208C408.098 312.245 407.987 311.829 407.871 311.419C407.994 311.829 408.111 312.245 408.221 312.661H449.572V409.072C449.793 409.078 450.007 409.098 450.221 409.111Z" fill="black"/>
<path opacity="0.1" d="M556.047 119.769H529.445V111.484H541.371V86.8058C542.404 87.183 543.434 87.571 544.459 87.9699V111.484H556.047V119.769Z" fill="black"/>
<path opacity="0.1" d="M620.14 217.141H489.541C489.541 217.141 489.541 217.141 489.586 217.174L489.528 217.141H465.3V126.525H472.165V193.504H503.536V153.837H529.451V122.552H556.054V153.863H581.969V193.53H620.14V217.141Z" fill="black"/>
<path opacity="0.1" d="M465.3 219.918V309.878H620.14V219.918H465.3ZM662.172 415.769L662.387 344.564H620.14V312.7H465.3V469.092C477.995 469.627 490.709 469.475 503.387 468.637H503.608C509.664 468.256 515.691 467.701 521.691 466.972H521.827C553.835 463.239 585.133 454.869 614.742 442.125" fill="black"/>
<path opacity="0.1" d="M680.853 312.661H716.974C716.656 330.927 712.997 348.869 704.99 365.438C698.326 379.204 689.067 391.241 678.128 401.756V344.531H680.853V312.661Z" fill="black"/>
<path opacity="0.1" d="M716.994 309.878H680.853V234.699H700.409C710.531 258.402 716.961 284.413 716.994 309.878Z" fill="black"/>
<path opacity="0.1" d="M449.578 151.71H427.706V180.121H449.578V151.71Z" fill="black"/>
<path opacity="0.1" d="M449.578 210.6H427.706V217.141H449.578V210.6Z" fill="black"/>
<path opacity="0.1" d="M449.578 219.918H427.706V239.004H449.578V219.918Z" fill="black"/>
<path opacity="0.1" d="M449.578 269.489H427.706V297.9H449.578V269.489Z" fill="black"/>
<path opacity="0.1" d="M449.578 328.378H427.706V356.789H449.578V328.378Z" fill="black"/>
<path opacity="0.1" d="M449.572 409.072C449.793 409.072 450.007 409.072 450.221 409.111H449.572V415.711H427.706V387.268H449.572V409.072Z" fill="black"/>
<path opacity="0.1" d="M449.572 446.144V468.091C442.262 467.471 434.973 466.628 427.706 465.561V446.144H449.572Z" fill="black"/>
<path opacity="0.1" d="M340.676 307.79H246.938V309.878H340.676V307.79Z" fill="black"/>
<path opacity="0.1" d="M340.676 312.655H246.938V320.653H340.676V312.655Z" fill="black"/>
<path opacity="0.1" d="M340.676 346.872H246.938V359.735H340.676V346.872Z" fill="black"/>
<path opacity="0.1" d="M340.67 385.954V398.817H267.35C264.167 396.38 261.022 393.879 257.916 391.312C255.768 389.537 253.64 387.716 251.473 385.954H340.67Z" fill="black"/>
<path opacity="0.1" d="M340.67 425.029V437.879H332.929C324.23 433.947 315.702 429.657 307.345 425.01L340.67 425.029Z" fill="black"/>
<path opacity="0.1" d="M521.847 228.638H503.394V247.132H521.847V228.638Z" fill="black"/>
<path opacity="0.1" d="M122.301 142.47H103.848V160.964H122.301V142.47Z" fill="black"/>
<path opacity="0.1" d="M122.301 185.427H103.848V203.921H122.301V185.427Z" fill="black"/>
<path opacity="0.1" d="M122.301 228.385H103.848V246.879H122.301V228.385Z" fill="black"/>
<path opacity="0.1" d="M122.301 271.336H103.848V289.83H122.301V271.336Z" fill="black"/>
<path opacity="0.1" d="M122.301 314.293H103.848V332.787H122.301V314.293Z" fill="black"/>
<path opacity="0.1" d="M122.301 357.251H103.848V375.745H122.301V357.251Z" fill="black"/>
<path opacity="0.1" d="M592.292 228.638H573.839V247.132H592.292V228.638Z" fill="black"/>
<path opacity="0.1" d="M521.847 274.256H503.394V292.749H521.847V274.256Z" fill="black"/>
<path opacity="0.1" d="M592.292 274.256H573.839V292.749H592.292V274.256Z" fill="black"/>
<path opacity="0.1" d="M521.847 319.866H503.394V338.36H521.847V319.866Z" fill="black"/>
<path opacity="0.1" d="M592.292 319.866H573.839V338.36H592.292V319.866Z" fill="black"/>
<path opacity="0.1" d="M521.847 365.483H503.394V383.977H521.847V365.483Z" fill="black"/>
<path opacity="0.1" d="M592.292 365.483H573.839V383.977H592.292V365.483Z" fill="black"/>
<path opacity="0.1" d="M521.847 411.1H503.394V429.594H521.847V411.1Z" fill="black"/>
<path opacity="0.1" d="M592.292 411.1H573.839V429.594H592.292V411.1Z" fill="black"/>
<path opacity="0.1" d="M503.394 468.637V456.711H521.84V466.94L503.394 468.637Z" fill="black"/>
<path opacity="0.1" d="M11.6792 194.024V204.604H74.8313V194.024H11.6792ZM17.973 203.941H12.8212V194.674H18.0119L17.973 203.941ZM24.2603 203.941H19.0695V194.674H24.2603V203.941ZM30.5346 203.941H25.3439V194.674H30.5346V203.941ZM36.822 203.941H31.6377V194.674H36.8284L36.822 203.941ZM43.1028 203.941H37.912V194.674H43.1028V203.941ZM49.3901 203.941H44.1993V194.674H49.3901V203.941ZM55.6774 203.941H50.4866V194.674H55.6774V203.941ZM61.9582 203.941H56.7675V194.674H61.9582V203.941ZM68.239 203.941H63.0483V194.674H68.239V203.941ZM74.5199 203.941H69.3291V194.674H74.5199V203.941Z" fill="black"/>
<path opacity="0.1" d="M11.6792 224.808V235.388H74.8313V224.808H11.6792ZM17.973 234.718H12.8212V225.478H18.0119L17.973 234.718ZM24.2603 234.718H19.0695V225.478H24.2603V234.718ZM30.5346 234.718H25.3439V225.478H30.5346V234.718ZM36.822 234.718H31.6377V225.478H36.8284L36.822 234.718ZM43.1028 234.718H37.912V225.478H43.1028V234.718ZM49.3901 234.718H44.1993V225.478H49.3901V234.718ZM55.6774 234.718H50.4866V225.478H55.6774V234.718ZM61.9582 234.718H56.7675V225.478H61.9582V234.718ZM68.239 234.718H63.0483V225.478H68.239V234.718ZM74.5199 234.718H69.3291V225.478H74.5199V234.718Z" fill="black"/>
<path opacity="0.1" d="M11.6792 255.605V266.205H74.8313V255.605H11.6792ZM17.973 265.516H12.8212V256.269H18.0119L17.973 265.516ZM24.2603 265.516H19.0695V256.269H24.2603V265.516ZM30.5346 265.516H25.3439V256.269H30.5346V265.516ZM36.822 265.516H31.6377V256.269H36.8284L36.822 265.516ZM43.1028 265.516H37.912V256.269H43.1028V265.516ZM49.3901 265.516H44.1993V256.269H49.3901V265.516ZM55.6774 265.516H50.4866V256.269H55.6774V265.516ZM61.9582 265.516H56.7675V256.269H61.9582V265.516ZM68.239 265.516H63.0483V256.269H68.239V265.516ZM74.5199 265.516H69.3291V256.269H74.5199V265.516Z" fill="black"/>
<path opacity="0.1" d="M11.6792 286.403V296.97H74.8313V286.403H11.6792ZM17.973 296.313H12.8212V287.06H18.0119L17.973 296.313ZM24.2603 296.313H19.0695V287.06H24.2603V296.313ZM30.5346 296.313H25.3439V287.06H30.5346V296.313ZM36.822 296.313H31.6377V287.06H36.8284L36.822 296.313ZM43.1028 296.313H37.912V287.06H43.1028V296.313ZM49.3901 296.313H44.1993V287.06H49.3901V296.313ZM55.6774 296.313H50.4866V287.06H55.6774V296.313ZM61.9582 296.313H56.7675V287.06H61.9582V296.313ZM68.239 296.313H63.0483V287.06H68.239V296.313ZM74.5199 296.313H69.3291V287.06H74.5199V296.313Z" fill="black"/>
<path opacity="0.1" d="M11.9517 317.193C12.2048 318.188 12.4903 319.183 12.7887 320.165V317.857H17.9795V327.104H15.2024C15.2868 327.318 15.3711 327.552 15.4555 327.754H74.8313V317.193H11.9517ZM24.2798 327.104H19.089V317.857H24.2798V327.104ZM30.5541 327.104H25.3634V317.857H30.5541V327.104ZM36.8414 327.104H31.6377V317.857H36.8284L36.8414 327.104ZM43.1222 327.104H37.9315V317.857H43.1222V327.104ZM49.4096 327.104H44.2188V317.857H49.4096V327.104ZM55.6969 327.104H50.5061V317.857H55.6969V327.104ZM61.9777 327.104H56.7869V317.857H61.9777V327.104ZM68.2585 327.104H63.0678V317.857H68.2585V327.104ZM74.5393 327.104H69.3486V317.857H74.5393V327.104Z" fill="black"/>
<path opacity="0.1" d="M26.6156 347.991C26.7778 348.199 26.9335 348.433 27.1022 348.641H30.5346V353.082C30.9045 353.525 31.2678 353.967 31.6442 354.383V348.615H36.8349V357.895H34.7327C34.9403 358.109 35.1414 358.337 35.3815 358.545H74.8508V347.991H26.6156ZM43.1028 357.895H37.912V348.654H43.1028V357.895ZM49.3901 357.895H44.1993V348.654H49.3901V357.895ZM55.6774 357.895H50.4866V348.654H55.6774V357.895ZM61.9582 357.895H56.7674V348.654H61.9582V357.895ZM68.239 357.895H63.0483V348.654H68.239V357.895ZM74.5198 357.895H69.3291V348.654H74.5198V357.895Z" fill="black"/>
<path opacity="0.1" d="M61.2575 378.781C61.848 379.12 62.4514 379.432 63.0613 379.77V379.445H68.252V382.371L69.3551 382.885V379.445H74.5458V385.07C74.6454 385.119 74.7497 385.159 74.8573 385.187V378.781H61.2575Z" fill="black"/>
<path opacity="0.1" d="M489.541 217.141H489.58H489.541ZM449.572 409.065H450.221H449.572ZM407.871 311.413C407.994 311.829 408.098 312.245 408.214 312.655C408.111 312.245 408 311.829 407.871 311.413ZM489.541 217.122H489.58H489.541ZM97.6382 119.749V122.526H126.622V119.749H97.6382ZM449.572 409.065H450.221H449.572ZM407.871 311.413C407.994 311.829 408.098 312.245 408.214 312.655C408.111 312.245 408 311.829 407.871 311.413ZM489.541 217.122H489.58H489.541ZM449.572 409.046H450.221H449.572ZM407.871 311.413C407.994 311.829 408.098 312.245 408.214 312.655C408.111 312.245 408 311.829 407.871 311.413Z" fill="black"/>
<path d="M299.507 246.892C299.507 246.892 296.951 246.534 296.951 242.801C296.951 239.069 295.121 232.098 295.121 232.098C295.121 232.065 293.538 219.957 291.351 218.032C289.164 216.107 286.355 204.806 286.355 204.806C286.355 204.806 285.875 198.673 284.895 197.353C283.915 196.033 282.592 192.801 280.639 188.191C278.686 183.58 270.543 180.388 270.543 180.388C270.543 180.388 255.82 171.83 251.648 169.04C251.269 168.811 250.915 168.543 250.591 168.24C249.864 167.284 246.697 167.265 246.697 167.265C246.367 165.171 246.049 162.765 245.945 160.587C245.945 160.352 245.945 160.118 245.912 159.884C250.565 157.128 254.069 152.783 255.781 147.646C255.859 147.399 255.924 147.139 255.995 146.892C256.274 146.8 256.531 146.65 256.749 146.453C256.966 146.256 257.141 146.016 257.261 145.747C257.637 144.908 257.643 143.926 258.111 143.146C258.656 142.223 259.694 141.728 260.511 141.033C262.575 139.277 263.107 136.318 263.009 133.626C262.945 131.448 262.594 129.25 262.73 127.084L262.769 126.538C262.808 126.213 262.854 125.888 262.912 125.576C263.23 123.963 263.924 122.441 264.314 120.842C264.703 119.242 264.742 117.441 263.833 116.062C262.503 114.04 259.733 113.636 257.3 113.428C254.542 113.194 252.076 113.5 250.312 111.204C249.486 110.005 248.556 108.88 247.534 107.842C247.171 107.504 243.641 105.345 243.641 105.202C240.196 103.603 236.292 103.303 232.643 104.357C230.814 104.89 229.088 105.762 227.232 106.197C223.229 107.147 218.622 106.119 215.222 108.415C213.327 109.715 212.192 111.783 211.128 113.799C210.263 115.459 209.385 117.118 208.493 118.774C207.06 121.498 205.6 124.268 204.996 127.286C204.869 127.942 204.791 128.607 204.763 129.276V129.308C204.763 129.549 204.763 129.789 204.763 130.03V130.336C204.763 130.563 204.763 130.784 204.802 130.986C204.84 131.187 204.834 131.252 204.853 131.389C204.873 131.526 204.905 131.831 204.944 132.039C204.983 132.247 205.061 132.612 205.139 132.898C205.171 133.021 205.217 133.138 205.256 133.255C205.321 133.476 205.398 133.691 205.483 133.906C205.528 134.016 205.574 134.133 205.626 134.244C205.723 134.471 205.84 134.692 205.956 134.894C206.008 134.985 206.047 135.07 206.099 135.154C206.28 135.457 206.48 135.748 206.696 136.026C208.085 137.762 210.129 138.867 211.64 140.493C211.64 140.558 211.64 140.623 211.64 140.682C211.64 140.864 211.64 141.039 211.64 141.221C211.721 144.847 212.683 148.398 214.445 151.566C216.207 154.733 218.715 157.422 221.749 159.397C221.749 159.644 221.782 159.897 221.795 160.144C221.921 162.075 221.897 164.012 221.723 165.938C221.459 165.627 221.128 165.378 220.756 165.212C220.383 165.045 219.977 164.964 219.569 164.976C219.29 164.962 219.011 164.986 218.739 165.048L218.68 165.002V165.061C217.253 165.412 215.494 166.901 213.814 171.134C213.814 171.134 208.701 176.909 204.808 176.668C200.915 176.427 191.059 182.677 191.059 182.677C191.059 182.677 181.443 188.932 179.38 195.305C178.226 198.919 176.844 202.455 175.24 205.892L163.353 230.44L161.16 249.916C161.16 249.916 162.374 258.577 162.133 259.897C161.893 261.217 167.123 273.124 167.123 273.124C167.123 273.124 184.402 303.551 191.461 305.111L191.967 304.754C192.269 304.912 192.59 305.032 192.921 305.111L194.375 304.084C194.462 305.229 194.425 306.38 194.264 307.517C193.291 310.522 194.628 330.128 196.328 333.971C198.028 337.814 197.424 388.204 197.424 388.204L197.184 392.652C197.184 392.652 197.184 392.795 197.242 393.042L197.184 394.096L197.359 394.187C197.541 395.597 197.482 397.029 197.184 398.42C196.574 400.371 196.328 405.885 196.328 405.885C196.328 405.885 191.468 437.021 193.771 443.276C196.075 449.532 198.034 456.386 198.034 456.386C198.034 456.386 200.467 464.189 198.151 465.522C195.834 466.855 189.249 469.092 190.605 472.344C191.838 475.348 196.516 483.398 197.21 484.575L197.152 485.193L196.198 495.552C196.352 496.92 196.722 498.255 197.294 499.506C198.339 501.762 200.37 504.103 204.231 503.85C204.879 503.804 205.632 503.726 206.359 503.629C213.425 502.679 222.126 499.519 222.126 499.519C221.674 499.231 221.26 498.888 220.893 498.498C220.546 498.161 220.27 497.756 220.084 497.309C219.898 496.862 219.804 496.381 219.809 495.897C219.913 494.011 216.39 485.024 215.514 482.813C215.378 482.495 215.306 482.313 215.306 482.313C215.306 482.313 223.339 473.898 222.002 466.439C222.002 466.439 213.113 461.237 216.04 458.382C218.966 455.528 224.196 447.328 224.196 447.328C224.196 447.328 224.436 416.667 224.196 412.089C223.945 408.911 224.096 405.715 224.643 402.575C224.741 402.101 224.857 401.639 224.981 401.184C229.028 401.789 233.113 402.1 237.205 402.114C238.697 402.114 240.216 402.113 241.747 402.022C241.747 402.456 241.766 402.924 241.805 403.427C242.143 411.022 242.772 424.34 243.285 429.289C244.011 436.383 248.028 455.501 248.028 455.501C248.028 455.501 240.365 460.431 249.364 472.578C249.364 472.578 249.364 476.98 248.767 477.617C248.13 479.701 247.617 481.82 247.23 483.964C246.853 486.253 246.697 488.568 247.307 489.771C248.767 492.645 257.527 492.411 257.527 492.411L257.741 492.372C259.394 492.201 261.066 492.361 262.657 492.842C264.249 493.323 265.729 494.116 267.013 495.175C270.341 497.854 282.974 496.677 289.813 495.825C292.493 495.487 294.284 495.175 294.284 495.175C294.371 494.871 294.401 494.554 294.375 494.239C294.303 492.554 292.986 488.861 284.058 485.564C284.058 485.564 275.662 479.906 275.779 474.977H275.604H274.63C275.338 474.938 275.792 474.977 275.792 474.977C275.792 474.977 272.502 462.947 273.845 461.972C275.188 460.996 271.165 447.666 271.165 447.666C271.165 447.666 268.862 425.296 268.739 423.729C268.744 422.384 268.947 421.047 269.342 419.762L268.739 407.498C268.739 407.498 268.622 403.421 268.739 402.094C268.719 400.943 268.626 399.794 268.46 398.654C268.401 398.199 268.343 397.724 268.278 397.256C271.425 396.456 273.469 395.715 273.469 395.715L273.105 353.024C275.779 347.822 276.272 336.409 276.259 328.313C276.259 323.111 276.025 319.261 276.025 319.261L279.678 313.285C279.678 313.285 280.522 306.132 279.185 304.565C278.595 303.856 278.861 303.121 279.347 302.517C279.6 302.316 279.867 302.133 280.145 301.97C280.145 301.97 280.107 301.912 280.061 301.827C280.316 301.614 280.587 301.42 280.872 301.249C280.872 301.249 279.574 299.233 280.736 298.381C281.826 299.122 282.799 299.681 283.539 300.137C283.487 300.611 283.435 300.884 283.435 300.884L283.747 300.234C284.46 300.637 284.895 300.884 284.895 300.884C284.895 300.884 290.618 289.459 290.495 287.775C290.371 286.091 294.388 278.996 294.388 278.996C294.388 278.996 294.874 275.27 297.067 273.709C299.26 272.149 298.767 260.84 298.767 260.84C298.767 260.84 299.377 254.949 300.837 252.543C302.297 250.137 299.507 246.892 299.507 246.892ZM190.008 241.878L190.118 244.603C189.469 243.556 189.002 242.801 189.002 242.801L190.008 241.878Z" fill="url(#paint0_linear_108:507)"/>
<path d="M285.206 295.949L283.805 301.931C283.805 301.931 272.58 296.189 270.555 288.893C268.531 281.597 273.942 278.827 273.942 278.827L284.402 283.268L285.206 295.949Z" fill="white"/>
<path opacity="0.1" d="M285.206 295.949L283.805 301.931C283.805 301.931 272.58 296.189 270.555 288.893C268.531 281.597 273.942 278.827 273.942 278.827L284.402 283.268L285.206 295.949Z" fill="black"/>
<path d="M222.21 499.558C222.21 499.558 211.829 503.382 204.691 503.863C200.902 504.116 198.91 501.788 197.885 499.545C197.325 498.298 196.964 496.97 196.814 495.611L197.742 485.304L198.235 479.815L213.399 475.868L215.546 482.449L215.748 482.95C216.611 485.148 220.069 494.089 219.965 495.955C219.961 496.433 220.053 496.907 220.236 497.348C220.419 497.79 220.688 498.19 221.029 498.524C221.377 498.918 221.774 499.265 222.21 499.558Z" fill="black"/>
<path d="M293.122 494.317C293.148 494.63 293.118 494.945 293.032 495.247C293.032 495.247 270.828 498.96 266.286 495.247C265.006 494.162 263.513 493.357 261.904 492.885C260.295 492.412 258.605 492.282 256.943 492.502C256.943 492.502 248.352 492.737 246.918 489.901C246.321 488.711 246.477 486.403 246.847 484.127C247.224 481.994 247.727 479.886 248.352 477.813L248.696 477.539L250.74 475.894L274.669 475.185H274.851C274.734 480.089 282.974 485.714 282.974 485.714C291.727 488.965 293.019 492.639 293.122 494.317Z" fill="black"/>
<path opacity="0.1" d="M293.122 494.317C293.145 494.63 293.112 494.945 293.025 495.247C293.025 495.247 270.828 498.96 266.286 495.247C265.006 494.163 263.515 493.359 261.907 492.886C260.299 492.414 258.61 492.283 256.949 492.502C256.949 492.502 248.352 492.737 246.925 489.901C246.328 488.705 246.477 486.403 246.847 484.127C250.156 484.458 255.379 485.284 257.429 487.255C260.531 490.252 265.786 493.244 269.011 493.478C271.535 493.64 286.634 494.122 293.122 494.317Z" fill="black"/>
<path opacity="0.1" d="M222.21 499.558C222.21 499.558 211.829 503.382 204.691 503.863C200.902 504.116 198.91 501.788 197.891 499.538C200.532 500.429 204.198 501.366 206.125 500.507C208.409 499.493 216.507 498.836 221.049 498.556C221.394 498.936 221.784 499.272 222.21 499.558Z" fill="black"/>
<path d="M237.614 191.423C229.049 188.087 218.031 177.065 220.783 171.914C221.394 170.615 221.757 169.212 221.853 167.779C222.03 165.833 222.056 163.876 221.931 161.926C221.738 158.733 221.355 155.554 220.783 152.406C220.783 152.406 247.521 153.011 245.964 156.958C245.51 158.116 245.439 160.125 245.562 162.375C245.685 164.625 246.01 167.167 246.347 169.32C246.814 172.272 247.281 174.522 247.281 174.522C247.281 174.522 245.646 176.818 244.686 176.941C243.726 177.065 249.903 196.176 237.614 191.423Z" fill="#CF6F80"/>
<path opacity="0.1" d="M215.728 482.95L215.527 483.171C207.533 473.482 197.865 485.557 197.865 485.557L197.723 485.304L198.216 479.815L213.379 475.868L215.527 482.449L215.728 482.95Z" fill="black"/>
<path opacity="0.1" d="M274.857 475.868C274.857 475.868 269.018 475.745 265.903 478.502C262.789 481.259 247.736 479.1 248.384 478.502C248.577 478.205 248.693 477.866 248.722 477.513L250.766 475.868L274.695 475.159C274.786 475.595 274.857 475.868 274.857 475.868Z" fill="black"/>
<path d="M225.675 399.779C225.24 400.857 224.91 401.974 224.689 403.115C224.148 406.24 223.997 409.421 224.241 412.583C224.481 417.135 224.241 447.64 224.241 447.64C224.241 447.64 219.109 455.775 216.247 458.642C213.386 461.51 222.087 466.66 222.087 466.66C223.384 474.073 215.52 482.449 215.52 482.449C207.527 472.76 197.859 484.842 197.859 484.842C197.859 484.842 192.603 475.738 191.293 472.487C189.982 469.235 196.425 466.985 198.689 465.665C200.954 464.345 198.579 456.561 198.579 456.561C198.579 456.561 196.665 449.74 194.394 443.517C192.123 437.294 196.899 406.314 196.899 406.314C196.899 406.314 197.145 400.813 197.736 398.895C198.034 397.51 198.093 396.085 197.911 394.681C197.872 394.206 197.826 393.809 197.794 393.543C197.762 393.276 197.736 393.153 197.736 393.153L197.826 392.997L201.071 386.936C201.071 386.936 227.232 395.962 225.675 399.779Z" fill="white"/>
<path d="M274.857 475.153C274.857 475.153 269.018 475.029 265.903 477.754C262.789 480.479 247.736 478.352 248.384 477.754C249.033 477.156 248.981 472.727 248.981 472.727C240.151 460.645 247.684 455.742 247.684 455.742C247.684 455.742 243.739 436.721 243.025 429.666C242.525 424.737 241.909 411.491 241.578 403.928C241.435 400.676 241.351 398.439 241.351 398.439L248.566 396.983L249.494 396.794L266.896 393.296C266.896 393.296 267.376 396.547 267.701 399.207C267.862 400.342 267.953 401.487 267.973 402.634C267.856 403.934 267.973 408.005 267.973 408.005L268.564 420.211C268.178 421.491 267.979 422.821 267.973 424.158C268.09 425.712 270.354 447.965 270.354 447.965C270.354 447.965 274.293 461.244 272.95 462.199C271.607 463.155 274.857 475.153 274.857 475.153Z" fill="white"/>
<path opacity="0.1" d="M245.964 156.958C245.51 158.116 245.439 160.125 245.562 162.375C241.98 164.536 237.863 165.641 233.683 165.563C229.503 165.485 225.43 164.227 221.931 161.933C221.738 158.737 221.355 155.556 220.783 152.406C220.783 152.406 247.522 152.998 245.964 156.958Z" fill="black"/>
<path d="M256.3 142.587C256.306 144.93 255.938 147.259 255.21 149.486C253.585 154.476 250.251 158.73 245.799 161.495C241.347 164.26 236.063 165.359 230.881 164.597C225.699 163.835 220.952 161.262 217.48 157.332C214.008 153.401 212.034 148.368 211.906 143.12C211.906 142.938 211.906 142.769 211.906 142.587C211.856 139.633 212.393 136.699 213.486 133.955C214.579 131.211 216.206 128.713 218.273 126.607C220.339 124.5 222.804 122.827 225.522 121.684C228.241 120.542 231.159 119.954 234.107 119.954C237.054 119.954 239.973 120.542 242.691 121.684C245.41 122.827 247.874 124.5 249.94 126.607C252.007 128.713 253.634 131.211 254.727 133.955C255.82 136.699 256.357 139.633 256.307 142.587H256.3Z" fill="#CF6F80"/>
<path opacity="0.1" d="M237.614 191.423C229.049 188.087 218.031 177.065 220.783 171.914C221.394 170.615 221.757 169.212 221.853 167.779L233.578 177.435L240.832 183.398L246.347 169.326C246.814 172.279 247.281 174.529 247.281 174.529C247.281 174.529 245.646 176.824 244.686 176.948C243.726 177.071 249.903 196.176 237.614 191.423Z" fill="black"/>
<path d="M267.934 234.101L258.143 398.947L245.374 399.786L212.309 304.201L217.733 190.721L218.875 166.745L233.578 178.846L240.838 184.81L246.516 170.328L257.072 179.549L267.934 234.101Z" fill="white"/>
<path opacity="0.1" d="M225.675 399.779C225.24 400.857 224.91 401.974 224.689 403.115C215.397 401.677 206.373 398.852 197.917 394.733L197.742 394.642L197.801 393.595L197.833 393.049L201.077 386.988C201.077 386.988 227.232 395.962 225.675 399.779Z" fill="black"/>
<path opacity="0.1" d="M248.715 403.141C246.34 403.546 243.944 403.819 241.539 403.96C241.396 400.709 241.312 398.472 241.312 398.472L248.527 397.015L248.715 403.141Z" fill="black"/>
<path opacity="0.1" d="M267.662 399.239C263.048 400.442 255.924 401.795 249.546 400.95L249.455 396.827L266.857 393.328C266.857 393.328 267.337 396.547 267.662 399.239Z" fill="black"/>
<path opacity="0.1" d="M249.429 401.704C222.826 406.256 198.462 393.205 198.462 393.205L198.696 388.783C198.696 388.783 199.299 338.653 197.625 334.81C195.951 330.966 194.647 311.478 195.594 308.486C196.542 305.495 192.136 260.639 192.136 260.639L191.422 242.431L165.3 231.825L176.979 207.426C178.557 204.005 179.913 200.487 181.041 196.892C183.072 190.558 192.499 184.335 192.499 184.335C192.499 184.335 202.167 178.118 205.989 178.352C209.811 178.586 214.82 172.851 214.82 172.851C218.518 163.402 221.866 167.681 221.866 167.681C221.866 168.13 221.866 167.681 221.685 169.079C220.387 179.451 242.668 212.225 242.986 212.804L245.108 264.605L247.256 330.16L249.429 401.704Z" fill="black"/>
<path d="M248.715 401.704C222.113 406.256 197.742 393.205 197.742 393.205L197.982 388.783C197.982 388.783 198.586 338.653 196.905 334.81C195.225 330.966 193.927 311.478 194.881 308.486C195.834 305.495 191.422 260.639 191.422 260.639L190.702 242.431L164.567 231.786L176.246 207.387C177.82 203.965 179.177 200.446 180.308 196.853C182.332 190.519 191.766 184.296 191.766 184.296C191.766 184.296 201.434 178.079 205.249 178.313C209.064 178.547 214.08 172.812 214.08 172.812C217.785 163.363 221.866 167.642 221.866 167.642C221.866 168.091 221.477 168.292 221.684 169.04C224.539 179.1 241.954 212.186 242.272 212.765L244.42 264.566L246.568 330.121L248.715 401.704Z" fill="white"/>
<path opacity="0.1" d="M241.546 214.241C238.684 213.045 223.527 195.702 223.527 195.702V191.755C222.976 190.454 219.699 191.247 217.039 192.158L218.181 168.182L219.478 169.261C222.32 179.315 241.215 213.662 241.546 214.241Z" fill="black"/>
<path d="M242.266 212.804C239.398 211.608 224.241 194.265 224.241 194.265V190.317C223.689 189.017 220.413 189.81 217.752 190.721L218.901 166.745L220.199 167.824C223.047 177.878 241.948 212.232 242.266 212.804Z" fill="white"/>
<path opacity="0.1" d="M198.462 299.298C198.819 299.298 216.961 297.386 216.961 297.386C216.961 297.386 227.946 319.034 227.226 324.301C226.505 329.568 225.201 334.231 220.783 333.405C216.364 332.579 197.002 334.055 197.002 334.055L198.462 299.298Z" fill="black"/>
<path d="M197.742 297.861C198.099 297.861 216.241 295.949 216.241 295.949C216.241 295.949 227.219 317.603 226.505 322.864C225.792 328.125 224.475 332.794 220.062 331.968C215.65 331.142 196.282 332.618 196.282 332.618L197.742 297.861Z" fill="white"/>
<path d="M211.413 287.697C211.413 287.697 228.063 296.664 228.42 299.402C228.776 302.139 219.946 298.205 218.038 297.731C216.782 297.427 215.504 297.227 214.216 297.132L201.492 297.477L211.413 287.697Z" fill="#CF6F80"/>
<path opacity="0.1" d="M236.9 215.36C237.867 215.36 238.652 214.574 238.652 213.604C238.652 212.634 237.867 211.848 236.9 211.848C235.932 211.848 235.148 212.634 235.148 213.604C235.148 214.574 235.932 215.36 236.9 215.36Z" fill="black"/>
<path d="M236.9 214.644C237.867 214.644 238.652 213.858 238.652 212.889C238.652 211.919 237.867 211.133 236.9 211.133C235.932 211.133 235.148 211.919 235.148 212.889C235.148 213.858 235.932 214.644 236.9 214.644Z" fill="#3F3D56"/>
<path opacity="0.1" d="M240.125 291.364C241.092 291.364 241.877 290.578 241.877 289.609C241.877 288.639 241.092 287.853 240.125 287.853C239.157 287.853 238.373 288.639 238.373 289.609C238.373 290.578 239.157 291.364 240.125 291.364Z" fill="black"/>
<path d="M240.125 290.643C241.092 290.643 241.877 289.856 241.877 288.887C241.877 287.917 241.092 287.131 240.125 287.131C239.157 287.131 238.373 287.917 238.373 288.887C238.373 289.856 239.157 290.643 240.125 290.643Z" fill="#3F3D56"/>
<path opacity="0.1" d="M238.645 253.362C239.613 253.362 240.397 252.576 240.397 251.606C240.397 250.637 239.613 249.85 238.645 249.85C237.678 249.85 236.893 250.637 236.893 251.606C236.893 252.576 237.678 253.362 238.645 253.362Z" fill="black"/>
<path d="M238.645 252.647C239.613 252.647 240.397 251.861 240.397 250.891C240.397 249.921 239.613 249.135 238.645 249.135C237.678 249.135 236.893 249.921 236.893 250.891C236.893 251.861 237.678 252.647 238.645 252.647Z" fill="#3F3D56"/>
<path d="M279.029 296.768C279.029 296.768 280.223 298.563 279.029 299.402C277.836 300.241 279.146 302.27 279.146 302.27C279.146 302.27 276.168 304.019 277.479 305.592C278.789 307.166 277.959 314.274 277.959 314.274L274.377 320.217C274.377 320.217 274.591 324.047 274.604 329.224C274.604 337.3 274.131 348.654 271.509 353.83L271.873 396.3C271.873 396.3 259.33 400.891 248.832 399.493L247.275 331.344C247.275 331.344 249.546 292.697 250.383 285.284C250.873 281.436 251.072 277.555 250.98 273.677C250.98 273.677 250.623 262.076 249.423 256.691C249.423 256.691 248.125 233.366 247.995 226.909C247.937 223.82 248.099 214.807 248.281 206.236C248.482 196.866 248.709 188.028 248.709 188.028L246.341 169.248C246.341 169.248 248.709 169.008 249.423 169.964C249.742 170.263 250.09 170.531 250.461 170.763C254.549 173.534 268.992 182.052 268.992 182.052C268.992 182.052 276.986 185.239 278.9 189.804C280.814 194.369 282.144 197.607 283.072 198.908C284 200.208 284.506 206.321 284.506 206.321C284.506 206.321 287.257 217.571 289.404 219.476C291.552 221.381 293.122 233.502 293.122 233.502L274.144 248.459C274.144 248.459 272.476 273.339 272.119 274.301C271.762 275.263 279.029 296.768 279.029 296.768Z" fill="white"/>
<path d="M279.75 296.768C279.75 296.768 280.937 298.563 279.75 299.402C278.562 300.241 279.86 302.27 279.86 302.27C279.86 302.27 276.901 304.038 278.199 305.612C279.497 307.186 278.679 314.293 278.679 314.293L275.097 320.237C275.097 320.237 275.312 324.067 275.331 329.243C275.331 337.32 274.857 348.674 272.236 353.85L272.593 396.32C272.593 396.32 260.031 400.91 249.546 399.512L247.995 331.363C247.995 331.363 250.266 292.717 251.103 285.304C251.593 281.455 251.791 277.575 251.694 273.696C251.694 273.696 251.337 262.095 250.143 256.711C250.143 256.711 248.845 233.385 248.709 226.928C248.65 223.839 248.819 214.826 248.994 206.256C249.196 196.885 249.423 188.048 249.423 188.048L246.295 169.014C246.295 169.014 249.423 169.014 250.143 169.983C250.46 170.286 250.808 170.554 251.181 170.783C255.269 173.553 269.718 182.072 269.718 182.072C269.718 182.072 277.706 185.258 279.62 189.823C281.534 194.388 282.864 197.627 283.798 198.927C284.733 200.228 285.226 206.34 285.226 206.34C285.226 206.34 287.977 217.59 290.125 219.495C292.272 221.401 293.823 233.496 293.823 233.496L274.844 248.452C274.844 248.452 273.177 273.332 272.813 274.295C272.45 275.257 279.75 296.768 279.75 296.768Z" fill="white"/>
<path opacity="0.1" d="M257.021 193.569L258.734 198.576L249.715 207.68C249.916 198.316 250.143 189.472 250.143 189.472L247.015 170.438C247.015 170.438 250.143 170.438 250.863 171.407C251.179 171.709 251.527 171.975 251.901 172.201L259.571 194.375L257.021 193.569Z" fill="black"/>
<path d="M256.3 192.132L258.02 197.139L249.001 206.243C249.202 196.872 249.429 188.035 249.429 188.035L246.295 169.001C246.295 169.001 249.429 169.001 250.143 169.97C250.461 170.271 250.809 170.539 251.181 170.77L258.857 192.938L256.3 192.132Z" fill="white"/>
<path opacity="0.1" d="M256.3 142.587C256.306 144.93 255.938 147.259 255.21 149.486C255.088 149.506 254.963 149.5 254.842 149.47C254.722 149.44 254.609 149.385 254.51 149.311C254.341 143.458 251.466 137.963 247.93 133.288C246.937 131.876 245.734 130.626 244.362 129.581C242.974 128.537 241.249 128.048 239.521 128.209C237.575 128.476 235.855 129.802 233.889 129.971C231.294 130.186 228.971 128.385 226.395 128.294C225.348 128.304 224.315 128.537 223.365 128.979C222.415 129.421 221.57 130.061 220.886 130.856C219.533 132.46 218.528 134.329 217.934 136.344C216.914 139.399 216.358 142.591 216.286 145.812C216.254 147.633 216.078 149.916 214.391 150.579C214.518 149.24 214.367 147.889 213.946 146.612C213.524 145.334 212.843 144.159 211.945 143.159L211.906 143.12C211.906 142.938 211.906 142.769 211.906 142.587C211.856 139.633 212.393 136.699 213.486 133.955C214.579 131.211 216.206 128.713 218.273 126.607C220.339 124.5 222.804 122.827 225.522 121.684C228.241 120.542 231.159 119.954 234.107 119.954C237.054 119.954 239.973 120.542 242.691 121.684C245.41 122.827 247.874 124.5 249.94 126.607C252.007 128.713 253.634 131.211 254.727 133.955C255.82 136.699 256.357 139.633 256.307 142.587H256.3Z" fill="black"/>
<path d="M243.298 107.257C239.926 105.668 236.091 105.367 232.514 106.412C230.716 106.945 229.023 107.81 227.2 108.246C223.307 109.188 218.765 108.168 215.423 110.45C213.567 111.751 212.451 113.805 211.413 115.802L208.818 120.757C207.403 123.469 205.976 126.226 205.386 129.211C204.795 132.195 205.152 135.538 207.04 137.937C208.416 139.687 210.447 140.786 211.939 142.431C212.833 143.432 213.511 144.607 213.931 145.882C214.351 147.158 214.503 148.507 214.379 149.844C216.072 149.194 216.234 146.905 216.273 145.084C216.345 141.863 216.901 138.671 217.921 135.616C218.513 133.6 219.519 131.731 220.873 130.127C221.558 129.333 222.403 128.694 223.353 128.252C224.302 127.81 225.335 127.576 226.382 127.565C228.978 127.656 231.307 129.451 233.876 129.237C235.823 129.074 237.549 127.741 239.508 127.481C241.236 127.317 242.962 127.806 244.349 128.853C245.72 129.896 246.922 131.147 247.911 132.56C251.454 137.235 254.328 142.717 254.497 148.582C255.23 149.122 256.287 148.42 256.651 147.588C257.014 146.755 257.027 145.78 257.488 144.986C258.02 144.07 259.039 143.582 259.837 142.892C261.861 141.143 262.367 138.197 262.289 135.525C262.211 132.852 261.692 130.141 262.198 127.513C262.503 125.901 263.191 124.392 263.567 122.799C263.944 121.206 263.989 119.417 263.1 118.045C261.803 116.029 259.071 115.633 256.69 115.444C253.984 115.21 251.564 115.509 249.838 113.227C249.028 112.036 248.116 110.917 247.113 109.884C246.769 109.546 243.298 107.4 243.298 107.257Z" fill="#512E4E"/>
<path opacity="0.1" d="M172.774 244.388L165.994 231.825L163.846 251.21C163.846 251.21 165.04 259.819 164.8 261.139C164.56 262.459 169.692 274.295 169.692 274.295C169.692 274.295 186.647 304.559 193.57 306.119L216.961 289.368L210.758 281.474C210.758 281.474 208.61 280.635 208.072 281.474C208.072 281.474 196.555 261.614 195.361 260.177C194.167 258.74 194.401 255.872 194.401 255.872C194.401 255.872 192.61 253.96 193.207 252.166C193.804 250.371 189.748 244.148 189.748 244.148L193.447 240.682L172.774 244.388Z" fill="black"/>
<path d="M166.351 230.394L164.56 231.825L162.412 251.21C162.412 251.21 163.606 259.819 163.366 261.139C163.126 262.459 168.265 274.295 168.265 274.295C168.265 274.295 185.213 304.559 192.136 306.119L215.533 289.368L209.324 281.474C209.324 281.474 207.176 280.635 206.638 281.474C206.638 281.474 195.121 261.614 193.927 260.177C192.733 258.74 192.973 255.872 192.973 255.872C192.973 255.872 191.182 253.96 191.779 252.165C192.376 250.371 188.314 244.148 188.314 244.148L192.013 240.682L166.351 230.394Z" fill="white"/>
<path opacity="0.1" d="M277.479 306.334C278.776 307.914 277.959 315.009 277.959 315.009L274.377 320.952C274.377 320.952 274.591 324.789 274.604 329.958L268.583 331.844C268.039 332.015 267.462 332.052 266.9 331.953C266.339 331.855 265.809 331.623 265.355 331.278C264.901 330.932 264.536 330.483 264.29 329.967C264.045 329.451 263.926 328.884 263.944 328.313L264.982 294.752L279.029 300.137C277.836 300.969 279.146 303.011 279.146 303.011C279.146 303.011 276.168 304.754 277.479 306.334Z" fill="black"/>
<path d="M278.199 305.612C279.497 307.192 278.679 314.293 278.679 314.293L275.097 320.237C275.097 320.237 275.312 324.067 275.331 329.243L269.199 331.162C268.667 331.327 268.102 331.363 267.552 331.267C267.002 331.17 266.484 330.942 266.04 330.604C265.595 330.265 265.238 329.826 264.998 329.321C264.757 328.816 264.641 328.261 264.658 327.702L265.702 294.037L279.756 299.421C278.556 300.254 279.866 302.289 279.866 302.289C279.866 302.289 276.901 304.038 278.199 305.612Z" fill="white"/>
<path d="M282.851 289.615C282.851 289.615 281.897 295.721 279.51 296.079C277.122 296.437 276.051 305.957 273.67 305.618C271.289 305.28 272.865 296.768 272.95 295.116C273.034 293.465 270.354 286.624 272.359 285.07C274.364 283.515 280.71 285.07 280.71 285.07L282.851 289.615Z" fill="#CF6F80"/>
<path opacity="0.1" d="M287.932 242.593L292.435 233.489C292.435 233.489 294.225 240.428 294.225 244.135C294.225 247.841 296.73 248.205 296.73 248.205C296.73 248.205 299.475 251.457 298.028 253.824C296.581 256.191 295.997 262.082 295.997 262.082C295.997 262.082 296.47 273.326 294.323 274.88C292.175 276.434 291.727 280.147 291.727 280.147C291.727 280.147 287.782 287.203 287.906 288.88C288.029 290.558 282.416 301.918 282.416 301.918C282.416 301.918 285.161 287.801 269.167 281.701C269.167 281.701 269.044 276.909 270.238 275.595C271.432 274.282 273.294 273.683 272.126 267.044C270.958 260.405 271.788 252.471 271.788 250.878C271.788 249.285 275.37 239.349 275.37 239.349L287.932 242.593Z" fill="black"/>
<path d="M289.878 232.189L293.81 233.489C293.81 233.489 295.607 240.428 295.607 244.135C295.607 247.841 298.112 248.205 298.112 248.205C298.112 248.205 300.857 251.457 299.41 253.824C297.963 256.191 297.385 262.082 297.385 262.082C297.385 262.082 297.859 273.326 295.711 274.88C293.564 276.434 293.083 280.147 293.083 280.147C293.083 280.147 289.145 287.203 289.268 288.88C289.391 290.558 283.772 301.918 283.772 301.918C283.772 301.918 286.524 287.801 270.523 281.701C270.523 281.701 270.406 276.909 271.6 275.595C272.794 274.282 274.656 273.683 273.488 267.044C272.32 260.405 273.151 252.471 273.151 250.878C273.151 249.285 276.732 239.348 276.732 239.348L289.878 232.189Z" fill="white"/>
<path opacity="0.1" d="M203.03 468.156C203.03 468.156 209.298 464.209 213.412 467.076C217.525 469.944 203.03 468.156 203.03 468.156Z" fill="black"/>
<path opacity="0.1" d="M251.732 455.95C251.732 455.95 257.28 455.235 261.939 460.261C266.598 465.288 251.732 455.95 251.732 455.95Z" fill="black"/>
<g opacity="0.1">
<path opacity="0.1" d="M259.85 141.468C259.051 142.158 258.026 142.652 257.494 143.569C257.04 144.356 257.027 145.325 256.664 146.17C256.3 147.015 255.243 147.705 254.51 147.171C254.341 141.319 251.46 135.824 247.924 131.142C246.935 129.729 245.733 128.479 244.362 127.435C242.973 126.389 241.244 125.9 239.515 126.063C237.568 126.33 235.855 127.656 233.889 127.819C231.294 128.04 228.965 126.239 226.389 126.148C225.342 126.158 224.309 126.393 223.36 126.836C222.411 127.279 221.568 127.92 220.886 128.716C219.532 130.318 218.526 132.185 217.934 134.198C216.915 137.254 216.359 140.445 216.286 143.666C216.247 145.481 216.078 147.744 214.404 148.42C214.443 148.9 214.443 149.383 214.404 149.863C216.091 149.213 216.26 146.924 216.299 145.103C216.371 141.882 216.927 138.691 217.947 135.635C218.539 133.62 219.545 131.751 220.899 130.147C221.582 129.353 222.426 128.713 223.375 128.272C224.324 127.83 225.355 127.596 226.402 127.585C228.997 127.676 231.333 129.471 233.902 129.256C235.849 129.094 237.575 127.76 239.528 127.5C241.257 127.337 242.986 127.826 244.375 128.872C245.746 129.916 246.948 131.166 247.937 132.579C251.473 137.255 254.354 142.736 254.523 148.602C255.256 149.142 256.313 148.439 256.677 147.607C257.04 146.775 257.053 145.799 257.507 145.006C258.039 144.089 259.064 143.601 259.863 142.912C261.887 141.163 262.393 138.217 262.315 135.544C262.315 135.46 262.315 135.375 262.315 135.297C262.192 137.612 261.575 139.973 259.85 141.468Z" fill="black"/>
<path opacity="0.1" d="M211.952 141.007C210.459 139.361 208.422 138.262 207.053 136.52C205.9 134.977 205.242 133.12 205.165 131.194C204.961 133.601 205.631 136 207.053 137.95C208.422 139.7 210.459 140.799 211.952 142.444C213.385 144.053 214.245 146.093 214.398 148.244C214.497 146.935 214.332 145.619 213.912 144.375C213.491 143.132 212.825 141.986 211.952 141.007Z" fill="black"/>
<path opacity="0.1" d="M263.58 121.375C263.198 122.968 262.516 124.483 262.205 126.089C262.02 127.163 261.953 128.253 262.004 129.341C262.026 128.721 262.093 128.104 262.205 127.494C262.516 125.881 263.198 124.373 263.58 122.779C263.804 121.901 263.876 120.99 263.795 120.087C263.754 120.521 263.683 120.951 263.58 121.375Z" fill="black"/>
</g>
<path opacity="0.1" d="M86.1213 494.596C121.039 494.596 149.345 490.04 149.345 484.419C149.345 478.799 121.039 474.243 86.1213 474.243C51.2039 474.243 22.8978 478.799 22.8978 484.419C22.8978 490.04 51.2039 494.596 86.1213 494.596Z" fill="white"/>
<path d="M88.1586 289.466H84.0903V381.266H88.1586V289.466Z" fill="#535461"/>
<path d="M113.723 380.986L113.47 385.122L113.107 390.974L112.957 393.406L112.601 399.259L112.445 401.691L112.082 407.543L107.981 473.917C107.803 476.773 106.545 479.454 104.465 481.413C102.384 483.373 99.6368 484.464 96.7817 484.465H75.4607C72.6063 484.464 69.8597 483.372 67.7802 481.413C65.7007 479.453 64.4447 476.773 64.2681 473.917L60.1869 407.498L59.8235 401.645L59.6743 399.213L59.3109 393.361L59.1617 390.929L58.7983 385.076L58.5388 380.94C58.4937 380.144 58.6114 379.348 58.8846 378.599C59.1578 377.85 59.5808 377.165 60.1276 376.586C60.6744 376.007 61.3336 375.546 62.0645 375.231C62.7955 374.917 63.5829 374.755 64.3784 374.756H107.987C108.78 374.763 109.563 374.933 110.287 375.254C111.012 375.576 111.663 376.043 112.2 376.627C112.738 377.211 113.15 377.899 113.412 378.648C113.674 379.398 113.78 380.194 113.723 380.986Z" fill="#3F3D56"/>
<path d="M113.47 385.122L113.107 390.955H59.1358L58.7724 385.122H113.47Z" fill="#9D9CB5"/>
<path d="M112.957 393.387L112.601 399.226H59.6483L59.285 393.387H112.957Z" fill="#9D9CB5"/>
<path d="M112.445 401.665L112.088 407.498H60.1609L59.7975 401.665H112.445Z" fill="#9D9CB5"/>
<path d="M52.5625 323.872C76.2518 341.052 86.1402 367.922 86.1402 367.922C86.1402 367.922 57.5911 366.94 33.8952 349.76C10.1994 332.579 0.330444 305.716 0.330444 305.716C0.330444 305.716 28.8667 306.691 52.5625 323.872Z" fill="#008B48"/>
<path d="M0.311035 305.716C0.311035 305.716 29.9503 322.201 39.4559 335.85C48.9615 349.499 86.1403 367.922 86.1403 367.922" stroke="#535461" stroke-width="2" stroke-miterlimit="10"/>
<path d="M67.8562 289.264C80.7488 298.608 86.1407 313.233 86.1407 313.233C86.1407 313.233 70.6008 312.7 57.7018 303.356C44.8028 294.011 39.4238 279.38 39.4238 279.38C39.4238 279.38 54.9572 279.913 67.8562 289.264Z" fill="#008B48"/>
<path d="M39.4238 279.38C39.4238 279.38 55.5541 288.354 60.7254 295.78C65.8967 303.206 86.1407 313.233 86.1407 313.233" stroke="#535461" stroke-width="2" stroke-miterlimit="10"/>
<path d="M104.86 312.492C90.0468 328.807 86.9128 350.13 86.9128 350.13C86.9128 350.13 107.799 344.993 122.599 328.671C137.399 312.349 140.546 291.033 140.546 291.033C140.546 291.033 119.673 296.176 104.86 312.492Z" fill="#008B48"/>
<path d="M140.559 291.039C140.559 291.039 121.263 307.764 116.357 319.287C111.452 330.81 86.9128 350.13 86.9128 350.13" stroke="#535461" stroke-width="2" stroke-miterlimit="10"/>
<path d="M648.631 306.75C648.631 306.75 637.919 253.336 642.019 246.69C642.019 246.69 642.169 240.512 641.922 232.638C641.922 232.338 641.922 232.039 641.922 231.734C642.644 232.216 643.396 232.65 644.174 233.034C647.952 234.98 652.289 235.541 656.437 234.621L653.193 230.999C652.414 230.134 651.603 229.198 651.434 228.053C651.265 226.909 651.733 225.888 652.135 224.867C655.217 217.063 655.379 207.251 649.442 201.294C644.427 196.287 643.207 189.823 637.763 185.252C633.786 181.903 631.599 176.993 629.536 172.246C627.79 168.234 626.032 164.189 625.033 159.936C624.254 156.613 623.943 153.173 622.872 149.929C621.801 146.684 619.797 143.53 616.663 142.08C615.547 141.566 614.307 141.273 613.289 140.59C611.952 139.687 611.147 138.217 610.181 136.929C605.269 130.427 588.821 134.257 581.034 136.897C578.918 137.562 576.958 138.65 575.273 140.096L575.344 139.979C575.403 139.882 575.474 139.784 575.539 139.687C574.687 140.377 573.95 141.201 573.359 142.125C572.223 143.926 571.75 146.027 570.802 147.978C569.66 150.286 563.308 156.73 566.04 159.325C566.231 159.499 566.45 159.64 566.689 159.741C567.714 160.169 568.843 160.282 569.933 160.066L569.816 160.346C568.883 162.635 568.405 165.085 568.408 167.558C568.408 178.242 577.2 186.903 588.055 186.903C590.096 186.905 592.125 186.592 594.07 185.974C594.115 186.221 594.154 186.468 594.2 186.715C594.2 186.812 594.232 186.91 594.245 187.007L593.901 187.489C593.884 187.459 593.864 187.431 593.843 187.404L583.656 201.671C582.099 202.77 573.132 209.273 572.625 214.15C572.093 219.489 571.561 225.738 571.561 225.738L571.49 227.078C571.045 227.451 570.524 227.722 569.964 227.874C569.404 228.025 568.818 228.053 568.246 227.956C565.066 227.435 565.066 239.661 565.066 239.661C565.066 239.661 562.951 241.611 561.498 239.921C560.044 238.23 556.203 243.959 556.203 243.959L532.131 244.999L531.58 245.032L530.282 241.007C530.142 240.582 529.841 240.23 529.444 240.027C529.046 239.823 528.585 239.785 528.16 239.921C528.06 239.954 527.962 239.995 527.868 240.044L527.777 240.096L527.609 240.213L527.524 240.291C527.478 240.334 527.434 240.379 527.394 240.428L527.317 240.519L527.278 240.558C527.128 240.766 527.029 241.006 526.988 241.258C526.947 241.511 526.967 241.77 527.044 242.015L528.16 245.468C523.514 246.404 518.765 249.044 522.638 256.314L503.004 252.679L509.357 258.025L542.149 264.807C541.714 265.587 542 266.719 543.356 268.312C549.196 275.185 559.837 277.052 564.119 277.533C565.25 280.068 566.663 282.468 568.33 284.686L567.96 291.533C567.96 291.533 557.118 343.725 555.133 346.372C556.135 345.233 557.052 344.023 557.877 342.749C554.73 353.473 550.331 368.149 549.176 370.347C547.32 373.859 545.601 388.067 547.716 388.978C548.365 389.257 550.221 389.121 552.868 388.919V390.096L552.751 434.699C552.751 434.699 553.283 462.056 551.823 464.664C550.364 467.272 549.974 472.74 549.974 472.74C549.974 472.74 544.135 483.529 539.508 487.866C539.477 487.9 539.442 487.93 539.405 487.957L539.262 486.942C539.262 486.942 533.701 493.978 521.399 493.582C521.399 493.582 513.996 498.407 524.974 498.667C535.953 498.927 549.974 498.277 549.974 498.277C549.974 498.277 559.765 483.32 567.967 485.271V496.606H570.478V485.089C571.642 484.321 572.639 483.324 573.407 482.158C574.176 480.992 574.7 479.682 574.948 478.307C575.163 476.889 575.006 475.441 574.491 474.103C573.977 472.765 573.124 471.585 572.016 470.679C571.518 470.228 571.118 469.678 570.842 469.065C570.567 468.452 570.42 467.788 570.413 467.115L570.322 467.193C570.322 466.966 570.264 466.732 570.238 466.491C569.518 460.639 568.616 448.563 571.801 439.628C576.168 427.377 577.492 410.314 574.312 400.156C573.287 396.909 572.444 393.607 571.788 390.265C571.711 389.843 571.639 389.44 571.574 389.062C573.748 389.357 575.9 389.791 578.017 390.363C585.382 392.398 601.493 392.775 615.248 392.665C615.281 393.042 615.319 393.439 615.365 393.835C615.61 396.593 616.123 399.319 616.896 401.977C618.622 407.179 619.414 430.115 619.414 430.115C619.414 430.115 621.639 448.973 620.426 456.646C619.777 460.912 619.128 465.197 618.758 469.502V469.587C618.758 469.587 615.112 479.991 612.445 485.642C612.38 485.785 612.309 485.928 612.244 486.065C611.533 486.13 610.833 486.285 610.161 486.526C610.161 486.526 606.586 493.679 603.024 494.863C599.462 496.046 600.643 499.942 608.708 498.511C616.773 497.08 628.952 495.91 628.952 495.91L629.477 488.614L631.956 485.505L631.307 492.782L633.948 492.262L633.597 483.411L637.653 478.326C637.653 478.326 642.551 473.956 635.271 465.36V465.548C635.194 465.425 635.122 465.295 635.038 465.171V465.132C633.831 463.259 632.871 459.767 634.629 453.57C637.808 442.372 639.658 432.208 639.658 432.208C639.658 432.208 646.756 404.981 638.224 392.099H638.6C637.726 390.286 637.108 388.36 636.764 386.377C636.721 386.143 636.682 385.902 636.647 385.655C642.96 385.291 649.157 384.146 654.211 381.675C654.192 381.649 651.149 317.037 648.631 306.75ZM568.479 261.686V261.816L567.182 261.881L568.479 261.686ZM564.028 262.303C563.815 262.351 563.615 262.446 563.444 262.583C562.886 263.374 562.536 264.293 562.426 265.256L560.401 264.8C560.401 264.8 558.98 264.495 556.936 264.15L555.97 263.175C558.63 262.954 561.394 262.628 564.028 262.303Z" fill="url(#paint1_linear_108:507)"/>
<path d="M631.008 483.503L630.236 492.717L632.825 492.197L632.436 482.202L631.008 483.503Z" fill="#1D2366"/>
<path d="M571.944 439.752C568.823 448.661 569.706 460.684 570.406 466.524C570.666 468.683 570.906 469.996 570.906 469.996C570.906 469.996 566.241 480.648 565.852 481.051C565.462 481.454 552.122 489.615 552.122 489.615L542.798 495.071C542.798 495.071 533.338 490.916 537.873 489.485C538.8 489.112 539.635 488.542 540.319 487.814C544.861 483.49 550.565 472.74 550.565 472.74C550.565 472.74 550.954 467.285 552.381 464.69C553.809 462.095 553.29 434.829 553.29 434.829L553.4 390.382V384.588L571.146 384.719C571.258 386.686 571.514 388.642 571.912 390.571C572.549 393.901 573.374 397.193 574.384 400.429C577.511 410.567 576.214 427.546 571.944 439.752Z" fill="#FFB0B1"/>
<path opacity="0.1" d="M570.906 469.996C570.906 469.996 566.241 480.648 565.852 481.051C565.462 481.454 552.122 489.615 552.122 489.615L542.798 495.071C542.798 495.071 533.338 490.916 537.873 489.485C538.8 489.112 539.635 488.542 540.319 487.814L540.722 490.656L543.83 490.526L570.432 466.537C570.666 468.683 570.906 469.996 570.906 469.996Z" fill="black"/>
<path d="M570.582 467.142L543.83 491.293L540.722 491.423L540.073 486.871C540.073 486.871 534.636 493.881 522.554 493.491C522.554 493.491 515.3 498.296 526.051 498.557C536.803 498.817 550.532 498.166 550.532 498.166C550.532 498.166 560.122 483.21 568.148 485.161V496.456H570.614V485.057C571.76 484.283 572.739 483.285 573.49 482.123C574.242 480.961 574.751 479.658 574.987 478.294C575.201 476.888 575.05 475.451 574.548 474.121C574.047 472.791 573.213 471.612 572.126 470.699C571.64 470.242 571.253 469.691 570.987 469.08C570.722 468.468 570.584 467.809 570.582 467.142Z" fill="#1D2366"/>
<path d="M633.474 453.642C631.748 459.819 632.689 463.298 633.87 465.165V465.204C635.384 467.508 636.438 470.085 636.971 472.792L637.075 473.378L624.903 491.163L618.298 493.764C618.298 493.764 607.676 490.129 609.616 489.088C610.103 488.835 610.862 487.482 611.731 485.616C614.327 479.991 617.908 469.613 617.908 469.613V469.528C618.285 465.243 618.882 460.97 619.543 456.718C620.731 449.064 618.551 430.277 618.551 430.277C618.551 430.277 617.772 407.433 616.085 402.237C615.323 399.595 614.817 396.886 614.573 394.148C614.223 390.896 614.145 388.217 614.145 388.217C614.145 388.217 621.14 378.463 633.961 388.997C634.986 389.838 635.888 390.818 636.64 391.911C645.497 404.539 638.366 432.358 638.366 432.358C638.366 432.358 636.582 442.476 633.474 453.642Z" fill="#FFB0B1"/>
<path opacity="0.1" d="M637.095 473.378L624.922 491.163L618.317 493.764C618.317 493.764 607.695 490.129 609.636 489.088C610.122 488.835 610.881 487.482 611.751 485.616C616.247 485.577 618.577 489.869 618.577 489.869L624.273 488.958C624.273 488.958 631.787 474.158 633.474 473.254C635.161 472.35 633.734 466.498 633.734 466.498V465.009C633.779 465.061 633.818 465.119 633.87 465.171V465.21C635.384 467.515 636.438 470.092 636.971 472.799L637.095 473.378Z" fill="black"/>
<path d="M618.966 490.252C618.966 490.252 615.722 484.283 609.506 486.487C609.506 486.487 606.009 493.64 602.511 494.798C599.014 495.955 600.182 499.857 608.085 498.433C615.988 497.009 627.901 495.832 627.901 495.832L628.42 488.555L636.452 478.3C636.452 478.3 641.241 473.95 634.117 465.386V466.875C634.117 466.875 635.544 472.727 633.857 473.631C632.17 474.535 624.682 489.342 624.682 489.342L618.966 490.252Z" fill="#1D2366"/>
<path opacity="0.1" d="M571.165 384.705C571.277 386.673 571.533 388.629 571.931 390.558C564.625 389.485 557.845 390.018 553.4 390.37V384.575L571.165 384.705Z" fill="black"/>
<path opacity="0.1" d="M637.361 393.53C637.361 393.53 626.979 394.037 614.599 394.141C614.249 390.89 614.171 388.211 614.171 388.211C614.171 388.211 621.166 378.456 633.987 388.991C635.012 389.831 635.914 390.812 636.666 391.904C636.868 392.459 637.099 393.001 637.361 393.53Z" fill="black"/>
<path d="M637.361 392.359C637.361 392.359 591.89 394.564 578.03 390.669C564.171 386.773 550.435 390.148 548.365 389.245C546.295 388.341 547.976 374.184 549.793 370.679C551.609 367.174 561.576 331.727 561.576 331.727L571.166 281.617L581.268 278.827L581.982 278.625L599.585 273.761L612.484 270.191C612.484 270.191 638.133 370.549 635.933 377.949C635.134 380.783 635.006 383.764 635.557 386.656C635.893 388.632 636.5 390.551 637.361 392.359Z" fill="#1D2366"/>
<path d="M537.737 247.347C537.737 247.347 528.653 257.101 535.531 262.537C542.409 267.974 546.931 263.058 546.931 263.058L537.737 247.347Z" fill="#C7DAF5"/>
<path opacity="0.1" d="M537.737 247.347C537.737 247.347 528.653 257.101 535.531 262.537C542.409 267.974 546.931 263.058 546.931 263.058L537.737 247.347Z" fill="black"/>
<path d="M611.128 183.216C611.128 183.216 610.064 184.231 608.461 185.726C606.177 187.866 602.797 190.994 599.799 193.614C595.646 197.236 592.22 199.896 593.447 197.627C594.673 195.357 594.44 191.403 593.83 187.703C593.784 187.456 593.745 187.209 593.7 186.968C593.195 184.251 592.525 181.567 591.695 178.931C591.695 178.931 598.404 170.243 602.115 166.816C603.497 165.516 604.464 164.982 604.523 165.886C604.587 167.102 605.496 169.788 606.625 172.636C606.657 172.727 606.69 172.812 606.729 172.903C607.481 174.854 608.331 176.857 609.077 178.586C610.219 181.239 611.128 183.216 611.128 183.216Z" fill="#FFB0B1"/>
<path opacity="0.1" d="M606.729 172.903C606.098 176.302 604.569 179.468 602.299 182.072C600.03 184.675 597.105 186.62 593.83 187.703C593.314 184.735 592.601 181.804 591.695 178.931C591.695 178.931 604.328 162.576 604.523 165.886C604.568 167.141 605.554 169.925 606.729 172.903Z" fill="black"/>
<path opacity="0.1" d="M592.571 192.073L594.206 189.765C594.206 189.765 595.29 196.385 599.274 193.465C603.257 190.545 603.452 215.438 603.452 215.438L599.176 279.51L568.278 277.656L569.154 246.697L572.651 231.09L581.301 208.402L586.446 200.904L592.571 192.073Z" fill="black"/>
<path d="M603.452 215.834L599.559 273.768L599.15 279.906L581.923 278.872L581.274 278.833L568.298 278.053L569.174 247.087L572.671 231.48L581.32 208.792L586.465 201.294L592.59 192.431L594.225 190.129C594.225 190.129 595.309 196.749 599.293 193.829L599.377 193.77C603.27 191.299 603.452 215.834 603.452 215.834Z" fill="#1D2366"/>
<path d="M573.106 226.057C573.106 226.057 571.555 229.308 568.44 228.781C565.326 228.255 565.332 240.486 565.332 240.486C565.332 240.486 563.263 242.437 561.835 240.747C560.408 239.056 556.644 244.772 556.644 244.772L533.065 245.812C533.065 245.812 543.557 250.618 541.5 265.158C541.5 265.158 577.122 262.947 578.29 259.572C579.458 256.197 573.106 226.057 573.106 226.057Z" fill="white"/>
<path opacity="0.03" d="M573.106 226.057C573.106 226.057 571.555 229.308 568.44 228.781C565.326 228.255 565.332 240.486 565.332 240.486C565.332 240.486 563.263 242.437 561.835 240.747C560.408 239.056 556.644 244.772 556.644 244.772L533.065 245.812C533.065 245.812 543.557 250.618 541.5 265.158C541.5 265.158 577.122 262.947 578.29 259.572C579.458 256.197 573.106 226.057 573.106 226.057Z" fill="black"/>
<path d="M504.581 253.453L510.797 258.772L561.965 269.547L555.619 263.058L504.581 253.453Z" fill="white"/>
<path d="M592.668 194.122C591.818 195.422 589.385 202.081 587.354 207.894C585.661 212.739 584.246 216.998 584.246 216.998C584.246 216.998 580.944 238.549 579.257 242.444C577.57 246.339 578.484 261.53 578.484 261.53L572.197 299.044C572.197 299.044 569.349 318.39 564.95 329.945C560.609 341.319 555.775 346.651 555.626 346.82C557.572 344.18 568.181 292.197 568.181 292.197L571.685 226.636C571.685 226.636 572.197 220.406 572.716 215.08C573.235 209.754 583.747 202.484 583.747 202.484L593.882 188.041C594.9 189.407 594.219 191.787 592.668 194.122Z" fill="white"/>
<path d="M566.241 278.378C566.241 278.378 551.317 277.728 544.089 269.027C536.861 260.327 560.797 265.555 560.797 265.555L567.019 266.985L566.241 278.378Z" fill="#FFB0B1"/>
<path opacity="0.1" d="M635.933 377.956C635.134 380.789 635.006 383.771 635.557 386.663C619.277 387.82 601.862 383.411 601.862 383.411C598.618 386.403 590.073 390.812 590.073 390.812L585.414 332.937C582.436 325.133 581.268 284.25 581.268 284.25C581.268 284.25 581.534 282.111 581.917 278.905C581.917 278.827 581.917 278.742 581.949 278.664C583.111 269.71 585.414 252.9 586.543 250.631C588.1 247.509 581.755 239.205 581.755 239.205L584.642 214.527L584.992 211.549C591.079 208.824 595.744 200.124 595.744 200.124L599.325 193.835C603.218 191.332 603.42 215.867 603.42 215.867L599.527 273.8L612.426 270.23C612.426 270.23 638.133 370.555 635.933 377.956Z" fill="black"/>
<path d="M652.641 381.955C634.895 390.786 602.641 382.605 602.641 382.605C599.397 385.596 590.851 390.005 590.851 390.005L586.186 332.13C583.214 324.327 582.047 283.444 582.047 283.444C582.047 283.444 585.797 252.939 587.354 249.825C587.808 248.914 587.588 247.562 587.049 246.105C584.401 239.172 583.428 231.709 584.207 224.327L585.453 213.721L585.797 210.749C591.89 208.018 596.555 199.317 596.555 199.317L599.799 193.621L605.768 183.125L608.597 178.157L609.078 178.593L612.743 181.922C612.743 181.922 614.301 183.223 616.637 185.174C621.717 189.466 630.496 197.022 635.025 201.645C639.009 205.716 640.267 221.55 640.631 233.47C640.871 241.319 640.728 247.47 640.728 247.47C636.712 254.097 647.217 307.296 647.217 307.296C649.663 317.577 652.641 381.955 652.641 381.955Z" fill="white"/>
<path opacity="0.03" d="M618.577 199.187C618.577 199.187 606.398 222.422 607.812 231.253C609.227 240.083 613.25 250.078 611.31 252.413C610.643 253.297 609.781 254.015 608.792 254.51C607.802 255.005 606.712 255.265 605.606 255.267C603.66 255.397 598.469 259.032 598.469 259.423C598.469 259.813 593.674 259.813 589.385 261.634C585.096 263.454 578.763 264.488 578.763 264.488C578.763 264.488 566.435 264.098 565.287 265.269C564.139 266.439 562.958 273.443 565.417 279.029C567.876 284.615 570.608 288.783 572.671 289.544C574.734 290.304 587.828 285.909 598.449 284.868C609.071 283.828 620.601 275.394 620.601 275.394C620.601 275.394 633.299 270.842 635.524 263.188C637.75 255.534 632.806 213.467 632.806 213.467C632.806 213.467 629.068 193.861 618.577 199.187Z" fill="black"/>
<path opacity="0.03" d="M617.019 197.236C617.019 197.236 604.841 220.477 606.268 229.302C607.696 238.126 611.705 248.127 609.759 250.468C609.095 251.354 608.234 252.072 607.246 252.568C606.257 253.063 605.167 253.322 604.062 253.323C602.115 253.453 596.925 257.088 596.925 257.478C596.925 257.868 592.13 257.868 587.841 259.683C583.552 261.497 577.219 262.537 577.219 262.537C577.219 262.537 564.891 262.147 563.749 263.318C562.607 264.488 561.413 271.498 563.879 277.078C566.345 282.657 569.07 286.832 571.133 287.593C573.196 288.354 586.29 283.958 596.912 282.924C607.533 281.89 619.063 273.443 619.063 273.443C619.063 273.443 631.755 268.891 633.954 261.243C636.154 253.596 631.236 211.517 631.236 211.517C631.236 211.517 627.511 191.917 617.019 197.236Z" fill="black"/>
<path d="M618.194 198.017C618.194 198.017 606.015 221.258 607.442 230.082C608.87 238.906 612.88 248.908 610.94 251.242C610.276 252.13 609.415 252.85 608.425 253.347C607.435 253.843 606.343 254.102 605.236 254.103C603.29 254.233 598.099 257.868 598.099 258.252C598.099 258.636 593.311 258.642 589.015 260.463C584.72 262.284 578.394 263.318 578.394 263.318C578.394 263.318 566.066 262.928 564.917 264.098C563.769 265.269 562.588 272.279 565.047 277.858C567.506 283.437 570.238 287.612 572.301 288.373C574.364 289.134 587.458 284.738 598.08 283.698C608.701 282.657 620.231 274.223 620.231 274.223C620.231 274.223 632.929 269.671 635.155 262.017C637.38 254.363 632.468 212.297 632.468 212.297C632.468 212.297 628.679 192.723 618.194 198.017Z" fill="white"/>
<path opacity="0.1" d="M617.928 260.353C617.928 260.353 608.195 258.402 611.582 261.653C614.969 264.904 614.95 267.753 619.096 267.623C623.242 267.493 617.928 260.353 617.928 260.353Z" fill="black"/>
<path opacity="0.1" d="M634.376 330.31C634.376 330.31 629.977 333.294 638.392 340.174C646.808 347.054 634.376 330.31 634.376 330.31Z" fill="black"/>
<path opacity="0.1" d="M625.98 354.845C625.98 355.235 624.423 369.151 630.249 372.63C636.076 376.109 625.98 354.845 625.98 354.845Z" fill="black"/>
<path d="M533.468 245.78C528.77 245.942 518.622 247.379 523.884 257.218C528.536 265.925 536.355 260.105 540.754 255.69C539.681 251.573 537.073 248.026 533.468 245.78Z" fill="#FFB0B1"/>
<path d="M540.813 255.612L541.007 255.41L540.813 255.612Z" fill="#FFB0B1"/>
<path opacity="0.1" d="M616.637 185.57C611.653 188.984 607.475 191.865 606.657 192.463C604.425 194.122 600.169 203.856 597.424 208.824C595.238 212.824 588.133 213.851 585.453 214.105L585.797 211.133C591.89 208.402 596.555 199.701 596.555 199.701L608.597 178.541L612.743 182.319C612.743 182.319 614.301 183.62 616.637 185.57Z" fill="black"/>
<path d="M616.637 185.18C611.653 188.594 607.475 191.475 606.657 192.08C604.425 193.731 600.169 203.466 597.424 208.434C595.238 212.433 588.133 213.461 585.453 213.714L585.797 210.743C591.89 208.011 596.555 199.311 596.555 199.311L608.597 178.151L612.743 181.916C612.743 181.916 614.301 183.203 616.637 185.18Z" fill="#DCE7FF"/>
<path d="M607.047 168.611C607.049 172.515 605.868 176.327 603.66 179.542C601.051 183.344 597.17 186.083 592.719 187.262C588.268 188.44 583.543 187.981 579.401 185.967C575.26 183.953 571.975 180.518 570.144 176.285C568.314 172.051 568.058 167.301 569.423 162.895C570.788 158.488 573.684 154.719 577.586 152.269C581.487 149.82 586.135 148.853 590.687 149.545C595.238 150.237 599.392 152.54 602.393 156.039C605.395 159.537 607.046 163.997 607.047 168.611Z" fill="#FFB0B1"/>
<path opacity="0.1" d="M640.631 233.476C637.996 231.852 635.85 229.542 634.421 226.792C633.338 224.646 632.618 222.168 630.768 220.646C629.101 219.281 626.875 218.949 624.799 218.338C617.973 216.316 612.25 210.073 612.036 202.946C611.932 199.59 612.977 196.241 612.503 192.918C612.234 191.038 611.488 189.258 610.336 187.749C609.764 187.027 609.137 186.351 608.461 185.726C607.553 184.868 606.599 184.036 605.768 183.125C605.245 182.562 604.788 181.94 604.406 181.272C604.097 180.726 603.847 180.148 603.66 179.549C602.362 175.569 603.543 170.848 602.115 166.823L602.038 166.602C601.499 165.171 600.402 163.74 598.878 163.63C597.353 163.519 596.049 164.787 594.595 165.353C591.552 166.537 588.269 164.521 585.732 162.466C583.195 160.411 580.334 158.063 577.109 158.519C574.974 158.824 573.287 160.281 571.321 161.035C570.877 161.207 570.419 161.34 569.952 161.432C571.616 157.273 574.673 153.826 578.598 151.68C582.522 149.535 587.07 148.827 591.459 149.677C595.848 150.528 599.805 152.883 602.65 156.34C605.494 159.796 607.049 164.137 607.047 168.618C607.049 169.97 606.907 171.32 606.625 172.643C606.657 172.734 606.69 172.818 606.729 172.909C607.481 174.86 608.331 176.863 609.078 178.593L612.743 181.922C612.743 181.922 614.301 183.223 616.637 185.174C621.717 189.466 630.496 197.022 635.025 201.645C639.009 205.729 640.255 221.557 640.631 233.476Z" fill="black"/>
<path d="M571.094 149.155C572.022 147.262 572.483 145.142 573.592 143.348C575.221 140.747 578.063 139.082 580.983 138.074C588.607 135.44 604.717 131.617 609.532 138.074C610.479 139.374 611.264 140.818 612.575 141.715C613.574 142.398 614.781 142.691 615.877 143.205C618.946 144.648 620.906 147.796 621.951 151.008C622.995 154.22 623.307 157.667 624.072 160.977C625.052 165.223 626.772 169.248 628.485 173.248C630.502 177.969 632.644 182.865 636.537 186.201C641.851 190.753 643.025 197.197 647.956 202.192C653.796 208.122 653.608 217.909 650.597 225.68C650.201 226.701 649.754 227.767 649.909 228.853C650.065 229.939 650.87 230.927 651.629 231.792L654.821 235.401C647.269 237.229 638.723 233.275 635.207 226.336C634.123 224.19 633.403 221.719 631.547 220.191C629.886 218.826 627.654 218.501 625.584 217.889C618.758 215.86 613.036 209.611 612.821 202.484C612.718 199.135 613.762 195.786 613.289 192.47C613.025 190.577 612.276 188.784 611.115 187.268C609.331 184.933 606.638 183.366 605.185 180.765C602.725 176.414 604.594 170.763 602.823 166.094C602.278 164.664 601.188 163.233 599.663 163.123C598.138 163.012 596.834 164.28 595.374 164.846C592.337 166.029 589.054 164.02 586.517 161.959C583.98 159.897 581.119 157.556 577.888 158.018C575.753 158.317 574.072 159.774 572.106 160.535C570.653 161.094 567.707 161.595 566.435 160.365C563.749 157.888 569.972 151.47 571.094 149.155Z" fill="#591D4B"/>
<path opacity="0.1" d="M637.01 224.19C635.92 222.045 635.207 219.573 633.351 218.052C631.69 216.686 629.458 216.355 627.381 215.743C620.562 213.721 614.839 207.472 614.619 200.345C614.515 196.996 615.56 193.64 615.092 190.324C614.821 188.443 614.072 186.663 612.919 185.154C611.128 182.82 608.435 181.252 606.988 178.651C604.529 174.307 606.398 168.657 604.62 163.981C604.081 162.557 602.985 161.126 601.467 161.009C599.948 160.892 598.631 162.173 597.178 162.739C594.141 163.923 590.852 161.907 588.321 159.852C585.791 157.797 582.916 155.449 579.691 155.905C577.557 156.21 575.87 157.667 573.91 158.421C572.457 158.98 569.505 159.488 568.233 158.259C565.56 155.657 571.782 149.252 572.898 146.95C573.826 145.051 574.287 142.938 575.403 141.143C575.461 141.046 575.526 140.948 575.591 140.851C574.756 141.544 574.035 142.364 573.456 143.283C572.346 145.077 571.886 147.184 570.958 149.09C569.835 151.392 563.613 157.816 566.293 160.398C567.59 161.634 570.51 161.126 571.964 160.567C573.91 159.806 575.61 158.35 577.745 158.051C580.989 157.589 583.844 159.936 586.375 161.991C588.905 164.046 592.214 166.062 595.238 164.878C596.691 164.313 597.963 163.038 599.52 163.155C601.077 163.272 602.115 164.696 602.68 166.127C604.451 170.796 602.583 176.447 605.042 180.797C606.495 183.353 609.188 184.953 610.972 187.3C612.133 188.817 612.882 190.609 613.146 192.502C613.619 195.819 612.575 199.168 612.679 202.517C612.893 209.67 618.616 215.893 625.441 217.922C627.498 218.533 629.743 218.858 631.404 220.224C633.267 221.752 634 224.223 635.064 226.369C638.581 233.307 647.126 237.261 654.678 235.434L653.173 233.73C646.626 233.828 640.002 230.095 637.01 224.19Z" fill="black"/>
<path opacity="0.1" d="M592.279 194.512C591.429 195.812 588.996 202.471 586.965 208.285C585.064 207.543 583.338 202.816 583.338 202.816L593.473 188.367C594.511 189.797 593.83 192.171 592.279 194.512Z" fill="black"/>
<path d="M592.668 194.122C591.818 195.422 589.385 202.081 587.354 207.894C585.453 207.16 583.727 202.426 583.727 202.426L593.862 187.983C594.9 189.407 594.219 191.787 592.668 194.122Z" fill="#DCE7FF"/>
<path d="M533.74 260.554L528.121 242.795C528.055 242.587 528.03 242.368 528.048 242.15C528.066 241.933 528.127 241.721 528.227 241.527C528.327 241.333 528.464 241.161 528.631 241.02C528.798 240.88 528.99 240.773 529.198 240.708C529.616 240.577 530.069 240.617 530.458 240.819C530.847 241.021 531.14 241.369 531.274 241.787L536.893 259.527L536.335 263.24L533.74 260.554Z" fill="#BE8B87"/>
<path opacity="0.1" d="M528.653 241.234C529.072 241.101 529.527 241.141 529.917 241.343C530.308 241.545 530.602 241.894 530.736 242.314L536.355 260.053L535.933 262.837L536.342 263.266L536.9 259.553L531.249 241.813C531.115 241.395 530.821 241.047 530.432 240.845C530.043 240.643 529.59 240.603 529.172 240.734C528.82 240.848 528.517 241.077 528.309 241.384C528.42 241.325 528.535 241.275 528.653 241.234Z" fill="black"/>
<path d="M533.74 260.554L536.893 259.553L536.433 262.596L536.335 263.266L535.414 262.303L533.74 260.554Z" fill="#EFC8C4"/>
<path d="M535.414 262.303C535.469 262.234 535.537 262.176 535.615 262.134C535.661 262.105 535.714 262.09 535.768 262.09C535.822 262.09 535.875 262.105 535.92 262.134C535.964 262.188 536.001 262.247 536.031 262.31C536.073 262.382 536.132 262.443 536.201 262.489C536.271 262.535 536.35 262.565 536.433 262.576L536.336 263.227L535.414 262.303Z" fill="#727A9C"/>
<path d="M528.089 249.103C528.089 249.103 539.359 249.038 536.705 253.843C534.052 258.649 529.905 259.228 529.905 259.228L528.089 249.103Z" fill="#FFB0B1"/>
<path d="M457.994 33.4374H457.507C438.146 33.4374 421.023 43.7053 411.173 58.8568C401.324 43.7053 384.201 33.4374 364.839 33.4374H364.353C349.822 33.5762 335.934 39.4564 325.705 49.8002C315.476 60.144 309.734 74.1156 309.726 88.6786C309.726 106.763 317.629 132.423 333.039 153.538C362.4 193.77 411.173 228.97 411.173 228.97C411.173 228.97 459.947 193.777 489.301 153.538C504.717 132.423 512.614 106.763 512.614 88.6786C512.606 74.1167 506.865 60.1461 496.637 49.8025C486.41 39.4588 472.523 33.5779 457.994 33.4374ZM451.032 156.633C448.827 156.624 446.676 155.948 444.861 154.692C443.047 153.437 441.654 151.66 440.864 149.597H429.289C428.527 149.592 427.785 149.349 427.167 148.901C426.55 148.454 426.087 147.824 425.844 147.1L422.288 136.364L411.037 175.764C410.818 176.523 410.359 177.189 409.73 177.664C409.1 178.139 408.334 178.397 407.546 178.398H407.319C406.497 178.358 405.714 178.037 405.099 177.487C404.485 176.938 404.078 176.195 403.945 175.38L392.35 105.488L383.876 146.846C383.682 147.632 383.231 148.33 382.595 148.828C381.958 149.327 381.174 149.597 380.366 149.597H364.061C363.572 149.618 363.084 149.539 362.626 149.366C362.169 149.193 361.75 148.929 361.397 148.589C361.044 148.25 360.763 147.843 360.571 147.392C360.379 146.941 360.28 146.455 360.28 145.965C360.28 145.475 360.379 144.99 360.571 144.539C360.763 144.088 361.044 143.68 361.397 143.341C361.75 143.002 362.169 142.737 362.626 142.564C363.084 142.391 363.572 142.313 364.061 142.333H377.511L389.515 86.7278C389.712 85.9057 390.188 85.1777 390.861 84.6683C391.534 84.1589 392.363 83.8997 393.206 83.935C394.049 83.9703 394.854 84.298 395.482 84.862C396.111 85.4259 396.524 86.1912 396.652 87.0269L408.494 158.324L418.577 123.072C418.787 122.33 419.23 121.675 419.842 121.206C420.454 120.737 421.2 120.479 421.97 120.471H422.041C422.804 120.471 423.547 120.713 424.165 121.161C424.782 121.609 425.243 122.242 425.48 122.968L431.91 142.353H440.722C441.348 140.445 442.488 138.748 444.016 137.449C445.544 136.15 447.401 135.299 449.381 134.991C451.361 134.682 453.387 134.928 455.237 135.701C457.086 136.474 458.686 137.744 459.861 139.371C461.036 140.998 461.739 142.918 461.893 144.921C462.048 146.923 461.647 148.929 460.736 150.717C459.825 152.506 458.438 154.007 456.729 155.056C455.02 156.104 453.055 156.659 451.051 156.659L451.032 156.633Z" fill="#FC4E57"/>
</g>
<defs>
<linearGradient id="paint0_linear_108:507" x1="231.203" y1="503.882" x2="231.203" y2="103.739" gradientUnits="userSpaceOnUse">
<stop stop-color="#808080" stop-opacity="0.25"/>
<stop offset="0.54" stop-color="#808080" stop-opacity="0.12"/>
<stop offset="1" stop-color="#808080" stop-opacity="0.1"/>
</linearGradient>
<linearGradient id="paint1_linear_108:507" x1="144832" y1="301913" x2="144832" y2="96516.4" gradientUnits="userSpaceOnUse">
<stop stop-color="#808080" stop-opacity="0.25"/>
<stop offset="0.54" stop-color="#808080" stop-opacity="0.12"/>
<stop offset="1" stop-color="#808080" stop-opacity="0.1"/>
</linearGradient>
<clipPath id="clip0_108:507">
<rect width="717" height="509" fill="white"/>
</clipPath>
</defs>
</svg>
